<?xml version="1.0" encoding="utf-8"?>
<!-- Generator: Adobe Illustrator 26.0.2, SVG Export Plug-In . SVG Version: 6.00 Build 0)  -->
<svg version="1.1" id="레이어_1" xmlns="http://www.w3.org/2000/svg" xmlns:xlink="http://www.w3.org/1999/xlink" x="0px"
	 y="0px" viewBox="0 0 266 46" style="enable-background:new 0 0 266 46;" xml:space="preserve">
<style type="text/css">
	.st0{fill:#FFFFFF;}
</style>
<g>
	<g>
		<g>
			<path class="st0" d="M54.5,9.2c0,0-0.1-0.1-0.2-0.1c-0.2,0-0.5,0.1-0.8,0.4l-0.3,0.2c-1,0.5-1.7,2.9-1.9,3.9c0,0-0.1,0-0.1,0.1
				c-0.6-1-1.7-2-2.8-2.1c0.4,1.7,2,6.9,4,6.4c1-0.2,3.2-4.5,3.2-6.9c0,0,0-0.1,0-0.1C55.6,9.8,55,9.4,54.5,9.2z"/>
		</g>
		<path class="st0" d="M68,35.6c-2.5,0.1-3.4,0-5.8,0.8c-0.3,0.1-0.6,0.3-0.9,0.6c0,0.5-0.3,1.3,0.2,1.5c0,0,0,0.1,0,0.1
			c0.1,0.1,0.3,0.2,0.4,0.3c0.1,0.1,0.2,0,0.3,0c0,0,0.1,0.1,0.1,0.1c0.2,0.1,0.5,0.1,0.7,0.2c0.1,0.1,0.2,0.1,0.4,0.1
			c0.1,0,0.2,0.1,0.2,0.2c0.5,0.2,0.9,0,1.3,0c1.4,0,1.1-0.2,2.5-0.2c1.2,0,2.3,0.2,3.5,0.1c0.6,0,1.3,0,2,0
			c1.1-0.1,2.3,0.1,3.4,0.1c0.6,0,1.2,0.2,1.8,0.3c0.6,0,1.2-0.2,1.8,0c0.2,0,0.4,0,0.6,0.1c0.2,0.1,0.4,0.2,0.6,0.2
			c0.5,0,1-0.2,1.5-0.4c0.3-0.1,0.6-0.1,0.9-0.3c0.1-0.1,0.3-0.3,0.3-0.5c0.1-0.4,0.3-0.9,0.1-1.4c0,0-0.1,0-0.1,0
			c-0.1-0.1,0-0.3-0.1-0.3c-0.2-0.1-0.4-0.1-0.7-0.2c-0.3-0.1-0.6-0.2-0.9-0.3C80.8,36.6,72.8,35.4,68,35.6z"/>
		<path class="st0" d="M43.6,36.5c0.3,0.1,0.5,0.1,0.7,0.2c0.1,0.1-0.1,0.3-0.1,0.5c0,0.4,0.2,0.8,0.1,1.2c0,0.1,0,0.1-0.1,0.2
			c-0.1,0.1-0.2,0.2-0.3,0.3c-0.4,0.2-0.8,0.1-1.2,0.3c-0.5,0.2-1.1,0.2-1.6,0.3c-1,0.1-1.9-0.1-2.9-0.1c-0.4,0-0.8,0-1.1,0.1
			c-0.4,0.1-0.9,0.1-1.4,0.1c-2.4-0.1-4.7-0.1-7-0.1c-0.4,0-0.9,0.1-1.3,0.1c-1.9,0.1-3.8,0.1-5.7,0.1c-0.7,0-1.3,0-2,0
			c-0.4,0-0.7,0-1.1,0c-1.4,0.1-2.8,0.1-4.2,0.1c-0.5,0-1.1,0-1.6,0c-1.6,0.1-3.2,0.3-4.7,0.3C7,40,5.9,39.8,4.8,39.2
			c-0.7-0.4-1.3-0.9-1.7-1.5c0.3-0.3,0.7-0.5,1.1-0.6c1.1-0.3,2-0.5,3.1-0.6c0.9-0.2,1.7-0.2,2.6-0.3c11.3-1,24-0.6,28.9-0.3
			C40.5,36,42,36.2,43.6,36.5z"/>
		<path class="st0" d="M64.1,26c0,0.1,0,0.1,0,0.1c0.1,0.3,0.3,0.3,0.5,0.5c0.2,0,0.5,0,0.7,0c0-0.1,0.2,0,0.2-0.1
			c0.2,0,0.4-0.1,0.5-0.3c0.1,0,0.1,0,0.1,0c0.1-0.2,0.3-0.3,0.5-0.3c0.3-0.3,0.5-0.6,0.8-1c0-0.1,0.1-0.3,0.2-0.3
			c0.2-0.6,0.3-1.2,0.5-1.8c0-0.2,0.1-0.5,0.1-0.6c0.1,0,0.1,0,0.1-0.1c-0.1-0.3,0.1-0.4,0.2-0.5c0.1,0,0.2,0,0.3-0.1
			c0-0.1,0-0.1,0-0.1c0.3,0,0.6,0.2,0.8,0.4c0.1,0,0.2,0,0.4,0c0,0.1,0.1,0.1,0.1,0.2c0.3,0,0.9-0.1,1.2,0.1c0,0.2,0.3,0.1,0.4,0.3
			c0.1,0.2,0.1,0.4,0.2,0.6c0,0.1,0,0.1-0.1,0.2c0.1,0.2,0.3,0.5,0.1,0.7c0.1,0.3,0,0.6,0.1,0.8c-0.1,0.1-0.1,0.3-0.1,0.5
			c0.1,0.3,0.1,0.6,0.2,0.9c0.3,0.3,0.2,0.7,0.4,1c0,0.1,0,0.3,0,0.4c0.1,0,0,0.2,0.1,0.2c0.1,0.4-0.1,0.8-0.1,1.2
			c-0.1,0.1-0.1,0.1-0.2,0.2c0,0.1,0,0.1,0,0.1c-0.1,0-0.1,0-0.1-0.1c-0.1,0.2-0.4,0.3-0.5,0.5c-0.1-0.1-0.2,0.1-0.3,0.1
			c-0.1,0,0,0.2-0.1,0.2c-0.1,0-0.3,0.1-0.4,0.1c-0.1,0.1-0.6-0.1-0.8,0.1L69.9,30c-0.1,0.1-0.1,0.1-0.3,0.1c0-0.1,0-0.1-0.1-0.1
			c-0.1,0.2-0.4,0.3-0.6,0.3c-0.1-0.1,0-0.2-0.2-0.3c-0.1-0.4-0.1-0.8-0.3-1.1c0.1,0,0.1-0.1,0.1-0.1c-0.1-0.2-0.2-0.4-0.2-0.5
			c-0.2-0.2-0.2-0.6-0.4-0.8c0.1-0.1-0.1-0.1-0.1-0.2c-0.1-0.1-0.2-0.2-0.3-0.3c-0.1,0-0.1,0.1-0.2,0.1c-0.1,0.3-0.3,0.5-0.4,0.8
			L67,27.9c-0.1,0.2-0.2,0.3-0.2,0.5c-0.1,0.1-0.2,0.2-0.3,0.3c0,0.1,0,0.1,0,0.1c-0.4,0.3-0.6,0.9-1,1.2c-0.1,0.2-0.4,0.3-0.5,0.6
			c-0.2,0-0.4,0.1-0.6,0.1c-0.1-0.1-0.4-0.2-0.5-0.1c0-0.1-0.1-0.1-0.1-0.1l-0.1,0.1c-0.1-0.1-0.4,0-0.6-0.1
			c-0.4-0.3-0.9-0.5-1.4-0.8c-0.1,0,0-0.2-0.1-0.2c-0.1,0-0.1,0-0.2-0.1c0-0.2,0.1-0.3-0.1-0.5l0.1-0.1c0-0.1-0.1-0.1-0.1-0.1
			c-0.1-0.4-0.3-0.8-0.4-1.2c-0.1-0.1-0.1-0.1-0.1-0.1c0-0.2-0.1-0.4-0.1-0.5c-0.1-0.3,0.2-0.5,0-0.8c0-0.1,0-0.1,0.1-0.2
			c-0.1-0.3,0-0.5,0.1-0.8c-0.1,0-0.1-0.1-0.1-0.1c0.1-0.3,0.1-0.5,0.1-0.8c0.1-0.2,0.2-0.4,0.3-0.6l-0.1-0.1
			c0.1-0.1,0.1-0.3,0.3-0.5c0-0.1,0-0.1-0.1-0.1c0-0.1,0.1-0.2,0.2-0.3c0.1-0.1,0.3-0.6,0.5-0.7L61.8,22c0.1-0.2,0.4-0.2,0.7-0.3
			c0.2,0,0.5,0.2,0.6,0.2c0.1,0.2,0,0.3,0.1,0.5c0.1,0,0.1,0,0.1,0c0,0.1,0,0.1,0,0.1c0,0.1,0,0.1,0.1,0.1c0.1,0.2,0.2,0.4,0.1,0.6
			c0,0.1,0.1,0.1,0.1,0.1c-0.1,0.1,0.1,0.3,0.1,0.4c-0.1,0.1,0,0.3-0.1,0.5c0.2,0.3,0.1,0.7,0.3,1C63.9,25.5,64,25.8,64.1,26z"/>
		<path class="st0" d="M38,28.4c0,0,0.3,0.2,0.3,0.3c0.1,0.1,0.2,0.3,0.3,0.3c0.1,0.1,0.3,0.1,0.3,0.1l0.1,0.2l0.2,0.2
			c0.2,0.1,0.3-0.1,0.5,0.2c0.1,0,0.2,0,0.2,0.1l0.1-0.1c0.1,0.1,0.2,0.2,0.3,0.3c0.2,0,0.4,0.1,0.6,0.2c0.1,0,0.1,0.2,0.1,0.1
			c0.2,0.1,0.4,0.2,0.6,0.1c0.1,0,0.2,0,0.2,0.1l0.1-0.1c0.2-0.1,0.2,0.1,0.3,0c0.1,0,0.1,0.1,0.1,0.1c0.1,0,0.1,0,0.2,0
			c0.2,0.1,0.8,0,1,0.1c0.9,0.1,2.3-0.1,2.3-0.1c0-0.1,0.2,0,0.2-0.1l0.1,0.1c0.3,0.1,0.6-0.3,0.9-0.1c0.1-0.1,0.1-0.1,0.2-0.1
			c0.1-0.1,0.4,0.2,0.5,0c0,0.1,0.1,0.1,0.1,0.1c0-0.1,0-0.1,0-0.1c0.2-0.1,0.5-0.1,0.7-0.3c0.1,0,0.2,0,0.3,0
			c0.1-0.1,0.1-0.1,0.2-0.1c0.4-0.1,0.7-0.4,1.2-0.5c0.1-0.1,0.2-0.1,0.3-0.2c0.1,0,0.1,0,0.2,0c0.1-0.1,0.1-0.1,0.2-0.2
			c0.2,0,0.4-0.3,0.6-0.3c0-0.1,0-0.1,0.1-0.1l0.1,0.1c0.1-0.1,0.1-0.1,0.2-0.2c0.2,0,0.4-0.3,0.5-0.4c0.1,0,0.1,0,0.1,0
			c0.1-0.1,0.1-0.1,0.1-0.2c0.1,0,0.1,0,0.1,0c0.2-0.2,0.3-0.4,0.6-0.5c0-0.1,0-0.1,0.1-0.1c0.2,0,0.1-0.2,0.2-0.2
			c0.1,0,0.3-0.2,0.3-0.1c0,0.1,0.2-0.3,0.2-0.2c0.1,0.1,0.3-0.6,0.4-0.6l-0.6-1.6c-0.2,0.3-1,1.4-1.5,1.5c0,0.3-0.4,0.4-0.6,0.6
			c0,0.1,0,0.1,0,0.1c-0.2,0-0.3,0.3-0.5,0.3c0-0.1-0.1,0-0.2,0c-0.1,0.1-0.2,0.1-0.2,0.3c-0.2,0-0.3,0.3-0.4,0.4L50,27.4
			c-0.3,0.2-0.6,0.2-0.8,0.5c-0.4,0.2-0.8,0.3-1.2,0.4c-0.1,0-0.1,0-0.2-0.1c-0.1,0.1-0.4,0-0.4,0.2c-0.4,0-0.8,0-1.3,0.1
			c0-0.1-0.2,0-0.2-0.1c-0.4,0.2-0.7-0.1-1.1-0.1c-0.1-0.1-0.2-0.1-0.3-0.2c-0.4,0.1-0.6,0-0.8-0.2c-0.2,0-0.4-0.2-0.6-0.3
			c0-0.1,0-0.1,0-0.1C43,27.5,43,27.5,43,27.4c0-0.2,0.2-0.2,0.4-0.3c0.1-0.2,0.6-0.2,0.7-0.3c0-0.1,0.2-0.2,0.2-0.3
			c0.1-0.1,0.1-0.3,0.2-0.3c0.2-0.1,0.1-0.3,0.4-0.4c0-0.1,0.2-0.2,0.2-0.3c0.3-0.2,0.3-0.3,0.4-0.7c0.1-0.2,0.4-0.4,0.4-0.7
			c0.1-0.1,0-0.4,0.1-0.4c0.1-0.5-0.1-0.7-0.1-1.2c-0.1-0.1-0.1-0.1-0.1-0.1c0-0.2-0.1-0.3-0.1-0.5c-0.2-0.2-0.2-0.3-0.4-0.5
			L45,21.4c-0.1,0-0.1,0-0.1,0c-0.1-0.1-0.3-0.2-0.3-0.3c-0.3-0.1-0.6-0.3-0.9-0.4l-0.1,0.1l-0.1-0.1c-0.1,0.1-0.1,0.1-0.1,0.1
			c0-0.2-0.2,0-0.3-0.1c-0.1,0-0.3-0.1-0.4,0.1c-0.4-0.1-0.9,0.1-1.4-0.1c0,0.1-0.3-0.1-0.3,0.1c-0.1,0.1-0.4,0.1-0.4,0.1
			c-0.1,0-0.2,0-0.2,0c-0.2,0.2-0.4,0.4-0.9,0.4c-0.1,0,0,0.2-0.1,0.2c-0.1,0-0.1,0-0.1,0c-0.4,0.3-0.7,0.7-1.1,1
			c0,0.1-0.1,0.1-0.1,0.3c0,0.1-0.1,0.1-0.2,0.1c0,0.1-0.1,0.2-0.1,0.3c0,0.1,0,0.1,0.1,0.1c0,0.1-0.1,0.2-0.2,0.2
			c-0.1,0.3-0.1,0.5-0.3,0.7c0,0.5-0.2,0.8-0.2,1.4c0.1,0.3,0.1,0.8,0.1,1c0.2,0.1-0.1,0.1,0.1,0.3c0.1,0,0,0.1,0,0.2
			c0.1,0.1,0.3,0.2,0.2,0.4c0,0.1,0.1,0.1,0.2,0.1c0.1,0.1-0.1,0.3,0,0.4c0,0.1,0.2,0,0.2,0.2L38,28.4z M42.9,24.1
			c-0.1,0.1,0,0.2-0.1,0.3l0.1,0.1c-0.1,0.6-0.4,1.3-1.2,1.9c-0.1,0-0.1,0-0.1-0.1c0-0.1-0.2-0.3-0.1-0.5c0-0.1-0.1-0.1-0.2-0.1
			c0.2-0.1-0.1-0.3,0-0.5c-0.1,0-0.1-0.1-0.1-0.1c0.2-0.1,0-0.5,0.3-0.6l-0.1-0.1c0.1-0.1,0.2-0.4,0.3-0.5c0-0.1,0-0.1,0-0.1
			c0.3-0.3,0.7-0.4,1.1-0.5c0.1,0,0.1,0,0.1,0.1C43.1,23.5,42.9,23.8,42.9,24.1z"/>
		<path class="st0" d="M55.8,23.4c0,0.1,0,0.2,0,0.3c0.5,0.5,0.4,1.3,0.7,1.9c-0.2,0.2,0,0.5-0.1,0.7c0.1,0.1,0.1,0.1,0.2,0.2
			c-0.1,0.5,0.2,0.9,0.1,1.4c-0.1,0.1-0.1,0.1-0.2,0.2c0,0.1,0,0.2,0.1,0.2l-0.1,0.1l0.1,0.1l-0.1,0.1c0.1,0,0.1,0.1,0.1,0.2
			c-0.2,0.2,0.1,0.4-0.1,0.7c0.1,0.1,0.1,0.2,0.1,0.3c-0.3,0.2-0.1,0.6-0.3,0.9l0.1,0.1l-0.1,0.1l-0.1-0.1c-0.1,0-0.1,0.1-0.1,0.2
			c0.1,0.2,0.3,0.4,0.1,0.5l0.1,0.1c-0.3,0.2-0.3,0.4-0.4,0.7c-0.1,0.1-0.1,0.1-0.2,0.2c0.1,0.1,0.1,0.2,0.1,0.3
			c-0.2,0.2-0.2,0.4-0.4,0.5c0,0.1,0.1,0.3-0.1,0.4l0.1,0.1c-0.1,0.2-0.2,0.4-0.2,0.6c0.1,0,0.1,0.1,0.1,0.2
			c-0.2,0.2-0.5,0.4-0.4,0.7c-0.2,0.3-0.4,0.4-0.5,0.6c0.1,0.2-0.3,0.2-0.3,0.4c0,0.2-0.3,0.1-0.2,0.3l0.1,0.1c-0.1,0-0.1,0-0.2,0
			c-0.1,0.2-0.1,0.2-0.3,0.3c0,0.1,0,0.2-0.1,0.2c-0.2,0.1-0.2,0.2-0.4,0.4c0.1,0.1-0.3,0.3-0.2,0.3c-0.1,0.1-0.2,0.2-0.2,0.3
			c-0.1,0-0.2,0-0.2,0.1l0,0.1c-0.1,0.1-0.1,0.1-0.2,0.1c-0.7,0.8-1.6,1.1-2.3,1.8c-0.2,0.1-0.4,0.2-0.5,0.2
			c-0.2,0.1-0.1,0.3-0.3,0.2c0-0.1-0.2,0.1-0.3,0.1c-0.2,0.2-0.5,0-0.6,0c0-0.1-0.1-0.1-0.2-0.2l-0.1,0.1c-0.1-0.1-0.3-0.3-0.4-0.3
			c-0.1-0.1,0.1-0.2,0-0.2l0.1-0.1c0-0.1-0.1-0.1-0.2-0.1c-0.2-0.2,0.2,0,0.1-0.2l-0.3,0c-0.1-0.2-0.2-0.2-0.3-0.4
			c0-0.2,0.4-0.2,0.4-0.3c0.2,0,0.1,0,0.3-0.1l-0.1-0.1c0.2-0.1,0.2-0.2,0.2-0.2c0,0.1,0.1,0,0.1,0c0.1,0,0.2,0,0.2-0.1
			c0-0.1,0-0.2,0.1-0.3c0.1,0,0.1,0,0.2,0c0.4-0.3,0.1-0.1,0.5-0.5c0-0.1,0-0.1,0-0.2c0.1-0.1,0.1-0.3,0.3-0.3c0,0.1,0,0.2,0.1,0.2
			c0.3-0.2,0.1-0.3,0-0.4c0.1-0.1,0.1-0.1,0.2-0.2c0,0.1,0.1,0,0.1,0c0,0.1,0.1-0.2,0.2-0.2c0.2-0.3,0.1,0.1,0.4-0.5
			c0.1-0.1,0.2-0.1,0.2-0.2c0,0,0.2-0.1,0.1-0.2c0-0.1,0-0.1-0.2,0c0.1-0.2,0.4-0.4,0.4-0.6c0.2,0.1,0.1-0.3,0.2-0.3
			c-0.1,0.1-0.2-0.1-0.2,0l0.3,0c0.2-0.2-0.3-0.2-0.1-0.3c0-0.1,0-0.1-0.1-0.1c0-0.1,0-0.2,0.1-0.2l0.1,0.1c0.1-0.1-0.1-0.4,0.1-0.5
			c0-0.1,0-0.2,0-0.3c0.3-0.2,0.1-0.2,0.2-0.4l-0.1-0.1c0,0.1,0.2-0.1,0.1-0.1c0-0.1,0-0.1,0-0.2c0.2-0.1,0.3-0.7,0.3-0.9
			c0,0.2-0.2-0.4,0-0.3c0.2-0.4,0.1-0.9,0.1-1.3c-0.2-0.1,0.1-0.2,0-0.4c-0.1,0-0.2,0-0.2-0.1c0.1-0.1,0.1-0.1,0.1-0.2
			c0-0.1,0-0.2-0.1-0.2c0-0.1,0-0.2,0.1-0.2c0-0.1,0-0.2-0.1-0.2c0.1-0.1,0.1-0.1,0.2-0.2c0-0.1-0.1-0.1-0.2-0.1
			c0-0.4-0.3-0.6-0.2-1c-0.1,0-0.1-0.1-0.1-0.2c0.2-0.3-0.1-0.6,0.1-0.9c-0.2-0.1-0.1-0.3-0.1-0.4c0.1-0.1-0.1-0.2-0.2-0.3
			c-0.2-0.4-0.2-0.7-0.3-1.2c-0.2,0.2-0.3-1.2-0.4-1.8c-0.2-0.3-0.1-0.7-0.2-1.1c0.1,0,0.2,0,0.2-0.1c-0.1-0.3,0.1-0.4,0.2-0.7
			c0.2,0,0.4-0.1,0.6,0c0.2-0.1,0.1-0.3,0.1-0.4c0.4,0,0.6-0.1,1-0.1c0,0.1,0,0.2,0.1,0.2c0.3,0,0.4,0.1,0.7,0.1
			c0,0.1,0,0.2,0.1,0.2c0.2,0,0.3,0.1,0.4,0.1c0.1,0,0.2,0,0.2-0.1l0.1,0.1l0.1-0.1c0.1,0.1,0.2,0.1,0.3,0.1
			c0.1,0.1,0.1,0.4,0.3,0.2C54.9,22.2,55.4,22.7,55.8,23.4z"/>
		<g>
			<path class="st0" d="M15.8,25.1c0-0.1-0.2-0.2-0.3-0.2c-0.1,0-0.3,0.2-0.3,0c0,0-0.1,0.2-0.3,0.4c-0.1,0.1-0.3,0.1-0.3,0.1
				c0,0.2-0.1,0.2,0.1,0.8c0.1,0,0.2,0.5,0.3,0.5c0-0.2,0.3,0.4,0.4,0.5c0.1,0,0.1,0,0.1,0c0.1,0,0,0.1,0,0.1l0.3,0.2
				c0,0.1,0.1,0.1,0,0.2c0.2,0,0.3,0.1,0.5,0.2c0.1,0,0,0.1,0,0.1c0.1,0,0.1,0,0.2,0c0.1,0,0,0.2,0.1,0.2l0.1,0
				c0,0.1,0.1,0.1,0.1,0.1c0.2,0.3,1.1,0.6,1.3,0.9l0.1,0c0.1,0.1,0.5,0.2,0.5,0.4l0.1,0c0,0.1,0.6,0.2,0.8,0.3c0.1,0,0-0.1,0.1-0.2
				c0.1,0.1,0.3,0.3,0.4,0.4c0,0,0.3,0,0.4,0.1c0.2,0.2,0.7,0.1,1,0.2c0,0.1,0.1,0.1,0.2,0.1l0.1,0l0,0.1c0.2-0.1,0.3,0,0.4-0.1
				l0,0.1l0.1,0c0,0.1,0,0.1,0.1,0.1c0.2,0.1,0.5,0.2,0.7,0c0,0.1,0.1,0.1,0.2,0.1c0.1,0,0.1,0,0.2-0.1c0.2,0,0.2,0.1,0.4,0.1l0,0.1
				c0.3-0.1,0.4-0.1,0.7,0c0.1-0.1,0.2,0,0.2-0.1l0,0.1c0.2-0.1,0.5-0.1,0.7-0.1l0,0.1c0.1,0,0.1,0,0.1,0c0.2-0.1,0.6-0.1,0.7-0.2
				c0.2,0.1,0.2,0.1,0.6,0.1c0.1,0,0.2,0,0.3,0.1c0.3-0.2,0.5-0.2,0.7,0c0.3-0.1,0.7-0.3,0.9-0.4c0.1,0,0.1,0,0.2,0.1
				c0.1,0,0.2,0,0.2-0.1c0.3-0.1,0.5-0.2,0.8-0.4c0,0.1,0.2-0.1,0.2,0c0-0.1,0-0.1,0.1-0.1c0.1,0,0.2-0.1,0.4-0.1
				c0-0.1,0-0.1,0.1-0.1c0.2-0.1,0.1-0.1,0.3-0.2c0.2-0.1,0.4-0.5,0.8-0.7c0-0.1,0.2-0.2,0.3-0.3c0-0.1,0.1,0,0.2,0l0-0.1
				c0.1,0,0.1-0.2,0.2-0.1c0-0.1,0.1-0.2,0.1-0.2c0.2-0.1,0.2-0.6,0.5-0.7c0-0.1,0-0.1,0-0.1c0.1-0.1,0.1-0.4,0.1-0.5
				c0-0.1,0-0.1,0.1-0.1c0.1-0.2,0.1-0.6,0.2-0.9c-0.1,0,0-0.1,0-0.1c0.1,0,0.1,0,0.1-0.1c-0.1,0,0-0.1,0-0.1l0.1,0
				c-0.1,0,0-0.2-0.1-0.2l0.1,0c-0.1-0.3,0-0.6-0.1-0.8l0.1,0c-0.1-0.2-0.1-0.3,0-0.5c0-0.1,0-0.1,0-0.2c-0.2-0.1,0-0.2-0.1-0.3
				c0.1-0.2-0.1-0.3,0-0.5c-0.1-0.1-0.1-0.2-0.2-0.3c0-0.1,0-0.1,0-0.2c-0.1,0-0.1,0-0.1-0.1c0.1-0.1,0-0.2,0-0.3
				c-0.1,0-0.1-0.1-0.1-0.2c0-0.3-0.1-0.6-0.3-0.8c0.1-0.1-0.1-0.6-0.1-0.7l-0.1-0.1c0-0.1-0.1-0.2-0.2-0.3c0-0.1,0-0.1,0-0.1
				c-0.1,0-0.1,0-0.1-0.1c0-0.1,0-0.1,0-0.1L32,19.2c-0.1-0.1-0.2-0.2-0.1-0.4c-0.2-0.3-0.3-0.5-0.6-1c-0.1,0.1,0-0.2-0.1-0.2
				c-0.2-0.4-0.3-0.5-0.5-0.7c0-0.1,0-0.1,0-0.1c-0.1,0-0.1,0-0.1,0c-0.1,0-0.1-0.1-0.1-0.1c-0.4-0.2-1.7-0.4-1.9-0.8
				c-0.1,0-0.2-0.1-0.3,0.1c-0.1-0.1-0.1-0.1-0.1-0.2c-0.3,0.2-0.6-0.2-0.9-0.2l-0.1,0.1c-0.1-0.2-0.3,0-0.4,0
				c-0.1-0.1-0.1-0.1-0.2-0.1c-0.3,0.1-0.6,0-0.9,0.3l-0.1-0.1l0.7,1.3c0,0.1,0.2,0.9,0.4,1.2c0.1,0,0.1,0.2,0.2,0.2
				c0,0.1,0,0.1,0,0.1c0.1,0.2,0.2,0.3,0.3,0.5c-0.1,0-0.1,0.1-0.1,0.1c0.1,0.2,0.1,0.5,0.1,0.7c0.1,0.1,0,0.1,0.1,0.2
				c0,0-0.1,0.1,0,0.2c0,0.1,0,0.3,0,0.3c0,0.3,0,0.1,0.2,0.2c-0.2,0.2,0.1,0.5-0.1,0.7c0.1,0.1,0.1,0,0.1,0c0,0.1,0,0.1-0.1,0.1
				c0,0.1,0,0.1,0.1,0.1c0.1,0.1,0,0.2,0,0.4c0.1,0,0,0.2,0.1,0.2c0,0.1,0.2,0.2,0,0.3c-0.1,0,0,0.2-0.1,0.4c0,0.1,0,0.4,0,0.4
				c0.1,0,0.1-0.1,0.1,0c0,0.1,0,0.1,0,0.1c0.1,0,0.1,0.1,0,0.2c0,0.2-0.1,0.3-0.2,0.4c-0.1,0.4,0.1,0.7-0.1,0.8
				c0.1,0.1,0,0.2,0,0.2c-0.1,0-0.1,0.2-0.1,0.3c-0.1,0.2-0.1,0.2-0.2,0.4c-0.2,0.1-0.2,0.2-0.3,0.3c0,0.1,0,0.1,0,0.1
				c0,0.1-0.1,0-0.1,0c-0.1,0.1-0.4,0.3-0.5,0.4l0,0.1c-0.2,0.1-0.3,0.1-0.5,0.2c-0.2,0.1-0.4,0.1-0.6,0.3c-0.2-0.1-0.4,0.1-0.6,0
				c-0.1,0-0.2,0.1-0.2,0.1c-0.1,0-0.3,0.1-0.3,0c-0.1,0-0.1,0.2-0.2,0.1c-0.1,0-0.1,0-0.1,0l0-0.1c-0.2,0.1-0.3,0-0.4,0.1l0-0.1
				c-0.2,0.1-0.3,0-0.4,0.1c-0.1-0.1-0.4-0.1-0.6-0.1c0-0.1,0-0.1-0.1-0.1l-0.1,0c0-0.1-0.4,0-0.5,0l-0.1,0l0-0.1l-0.1,0
				c-0.1-0.1-0.6-0.1-0.8-0.3c-0.1,0.1-0.2,0.1-0.3,0c-0.5,0-1.1-0.3-1.2-0.3l0-0.1c-0.2,0.1-0.5,0-0.5-0.1c-0.1,0-0.1,0-0.2,0
				c-0.1-0.1-0.5-0.1-0.5-0.3c0,0-0.2-0.1-0.3-0.2c-0.1,0.1-0.4-0.3-0.5-0.3l-0.2,0l-0.1-0.2L16,25.3C15.9,25.1,15.8,25.3,15.8,25.1
				z"/>
			<path class="st0" d="M20.3,16.7c0.1,0,0.2,0,0.2,0c0.4,0.4,1.1,0.3,1.6,0.5c0.2-0.1,0.4-0.1,0.6-0.1c0.1,0.1,0.1,0.1,0.1,0.2
				c0.4-0.1,0.7,0.1,1.1,0.1c0.1-0.1,0.1-0.1,0.2-0.1c0.1,0,0.2,0,0.1,0.1l0.1-0.1l0.1,0.1l0.1-0.1c0,0.1,0.1,0.1,0.1,0.1
				c0.2-0.1,0.3,0,0.6-0.1c0.1,0.1,0.1,0.1,0.2,0.1c0.2-0.2,0.3,0,0.6-0.1l0,0.1l0.1-0.1l0-0.1c0-0.1,0.1-0.1,0.2,0
				c0.1,0.1,0.2,0.3,0.4,0.2l0,0.1c0.1-0.1-0.9-0.1,0.7-0.2c0.1,0,0.1,0,0.2-0.1c0,0.1,0.1,0.1,0.2,0.1c0.2-0.1,0.4-0.1,0.6-0.2
				c0.1,0,0.2,0.1,0.3,0l0,0.1c0.2,0,0.4,0,0.6-0.1c0,0.1-0.1-0.1,0-0.1c0.2-0.1,0.5-0.3,0.8-0.1c0.3,0,0.4-0.2,0.7-0.2
				c0.1,0.1,0.3-0.1,0.4-0.1c0.1,0.1,0.1-0.1,0.2,0l0,0.1c0-0.1,0-0.1,0.1-0.1c0.2,0,0.2,0,0.3-0.1c0.1,0,0.1,0.1,0.2,0
				c0.2-0.1,0.3-0.1,0.5-0.1c0,0.1,0.2,0,0.1,0c0.1,0,0.2,0,0.3,0c0-0.1,0.1-0.1,0.1-0.1l0.1,0.1c0.1,0,0.1,0,0.2-0.1
				c0.9-0.1,1.3-0.5,2.2-0.5c0.2-0.1,0.3-0.1,0.5-0.2c0.1-0.1,0.3,0.1,0.3,0c-0.1,0,0.2-0.1,0.2-0.2c0.2,0,0.3-0.4,0.4-0.5
				c-0.1,0,0-0.1,0-0.2l0.1,0c0-0.1,0-0.5,0-0.6c0-0.1-0.2,0-0.1-0.1l0-0.1c-0.1,0,0-0.1,0.1-0.2c0-0.2-0.2,0-0.3-0.1l0.2-0.2
				c-0.1-0.1-0.4-0.2-0.5-0.3c-0.1,0.1-0.1,0.1-0.2,0.1l0-0.1c-0.1,0.1-0.2,0-0.3,0c0.1,0,0,0-0.1,0.1c0,0.1-0.1,0.1-0.1,0.1
				c-0.1,0-0.1-0.1-0.2-0.1c0,0.1,0,0.1-0.1,0.1c-0.4,0.1-1.4,0.1-1.5,0c-0.1,0-0.1,0-0.2,0.1c0.1,0-0.1,0.1,0,0c0.1,0-0.2,0-0.2,0
				c-0.3,0-1.1,0.1-0.9,0c-0.2,0-0.5,0.1-0.6,0c0,0.2-0.3-0.1-0.4,0c0.1,0-0.1,0-0.1,0l0,0.1c-0.2,0.1-0.2-0.1-0.4-0.1
				c-0.1,0-0.1-0.1-0.1-0.1c-0.1,0-0.1-0.1-0.2,0l0,0.1c-0.1,0-0.3-0.2-0.4-0.1c-0.1,0-0.1-0.1-0.2-0.1c-0.2,0.1-0.5,0.1-0.7,0.1
				l0-0.1c0.1,0-0.1,0.1-0.1,0.1c-0.1,0-0.1,0-0.1,0c-0.1,0.1-0.7,0.1-0.8,0.1c0.1,0-0.3-0.3-0.3-0.1c-0.4,0.1-0.8-0.1-1.2-0.1
				c0-0.2-0.2,0.1-0.3,0c0-0.1,0-0.1,0-0.2c-0.1,0.1-0.2,0-0.3,0.1c-0.1,0-0.2,0-0.1-0.1c-0.1,0-0.2,0-0.2,0c-0.1,0-0.2,0-0.1-0.1
				c-0.1,0.1-0.2,0.1-0.3,0.2c-0.1,0-0.1-0.1,0-0.1c-0.3,0-0.5-0.2-0.9-0.1c0-0.1-0.1-0.1-0.1-0.1c-0.3,0.2-0.7,0-1,0.1
				c0-0.1-0.2-0.1-0.4-0.1c-0.1,0.1-0.2-0.1-0.2-0.1c-0.4-0.1-0.7-0.1-1-0.2c0.1-0.1-1.1-0.2-1.5-0.2c-0.3-0.2-0.6,0-0.9-0.1
				c0,0.1,0,0.1-0.1,0.1c-0.2-0.1-0.4,0.1-0.6,0.2c0,0.1-0.2,0.2-0.2,0.3c-0.1,0.1-0.1,0.2-0.2,0.2c-0.1,0.3-0.1,0.3-0.2,0.6
				c0.1,0,0.2,0,0.1,0.1c-0.1,0.2,0.1,0.3,0,0.5c0.1,0,0.2,0,0.1,0.1c0,0.1,0,0.2,0.1,0.3c0,0.1,0,0.1-0.1,0.1l0.1,0.1l-0.1,0.1
				c0.1,0.1,0,0.2,0,0.2c0.1,0.1,0.3,0.1,0.2,0.2C19.3,16,19.7,16.4,20.3,16.7z"/>
		</g>
	</g>
	<g>
		<path class="st0" d="M100.6,25.6c0.2-0.2,4.3-5.6,4.3-5.6l-1.9-2.7c0,0-1.9,0.4-2.7,0.4c-1.1,0-6.6-0.2-6.6-0.2l0.5,2.4
			c0,0,5.5-0.3,6.6-0.4c-1.8,3.5-8,12.7-8,12.7l1.7,0.7c0,0,2-2.2,4.9-5.8c0.9,1.1,2.9,3.6,3.7,5.4l0.1,0.2l2-3l-0.1-0.1
			C105.2,29.5,102.3,26.8,100.6,25.6z"/>
		<path class="st0" d="M106.5,23.9c-1.6-0.1-3.4-0.2-3.4-0.2l0.2,2.7c0,0,3-0.5,3.3-0.6c0.2,4,0.2,11.9,0.2,11.9l2.4-1.2l0-0.1
			c0-0.7,0.7-20.2,0.7-20.2l-3.8-0.7C106.1,15.4,106.3,18.3,106.5,23.9z"/>
		<path class="st0" d="M111.5,38.9l2.5-1.3l0.9-22.6l-4.1-0.3C110.8,14.7,111.5,34.8,111.5,38.9z"/>
		<path class="st0" d="M233.8,38.9l2.6-1.3l0.9-22.6l-4.2-0.3C233,14.7,233.7,34.8,233.8,38.9z"/>
		<path class="st0" d="M212,15l-4.2-0.3c0,0,0.7,20.1,0.7,24.2l2.6-1.3l0.5-11.8c1.3,0.2,3.9,0.6,3.9,0.6c0.1-0.8,0.2-2.5,0.2-2.5
			s-2.8,0.2-4.1,0.3L212,15z"/>
		<path class="st0" d="M121.7,25.9c0,0,5.8-2.6,8.5-4.1c2.3,1.3,6.3,3.6,7.6,4.3l0.1,0.1l1.4-2.8c0,0-6.5-2.5-7-2.7
			c0.4-0.2,5.3-2.7,5.3-2.7l-2.6-2.3c-2.2,0.9-13.6,0.3-13.6,0.3l0.2,2c0,0,8.2,0,8.9,0c-3.5,3.1-10.6,7-10.6,7L121.7,25.9z"/>
		<path class="st0" d="M118,27.2l0.7,2.1c0,0,3.6-0.1,8.7-0.2c0.5,5.4,0.6,7,0.6,9.7l3.3-1.5c0,0,0.5-6.3,0.5-8.2c0.3,0,9.2,0,9.2,0
			l0.2-2C128.9,27.7,118,27.2,118,27.2z"/>
		<path class="st0" d="M260.1,27.2l0-2.2c0,0-9.5,0.5-12.5,0.3c-0.1-0.5-0.3-6.6-0.2-7.3c6.1-0.2,12.3,0.1,12.3,0.1l0.2-2.2
			L243.4,16l0.3,11.3L260.1,27.2z"/>
		<path class="st0" d="M253.6,34.3c0,0,0.3-5.7,0.3-5.7l-4.2-0.3c0,0,0.3,4.7,0.4,6.1c-3.8,0-10.1-0.2-10.1-0.2l0.2,2.3
			c0,0,12.6-0.3,22.7-0.1l0.1-2.2C263,34.1,258.8,34.2,253.6,34.3z"/>
		<path class="st0" d="M180.4,26.5L181,16l-3.5-0.3l0.1,3.9c-1.2,0-3.6,0-4.5,0l-0.1-3.3l-3.6-0.3l1,10.4
			C170.4,26.5,176.5,26.3,180.4,26.5z M173.1,21.5c1.5,0,3.6,0,4.5,0l0.1,3.1l-4.5,0.1L173.1,21.5z"/>
		<path class="st0" d="M185.3,18.5c-1-0.2-2.8-0.5-3.2-0.5l0.1,2.5l3.2-0.3c0,0.8,0,1.6,0.1,2.4c-1.1-0.1-2.7,0.1-3.4,0l-0.1,2.1
			l3.5-0.4c0,1.2,0.1,2.5,0.1,4l2.5-1c0.1-1,0.9-8.5,1.1-12.2l-4.1-0.3C185.2,16,185.3,17.2,185.3,18.5z"/>
		<path class="st0" d="M178.2,36.2l-0.3-1.9c4,0.1,9.5-0.1,9.5-0.1L188,29c-3.4,0.3-14.5,0.1-14.5,0.1l0.5,2c1.8,0,8.9-0.1,10.4-0.1
			l-0.1,1.7c-2.2,0-7.9-0.2-10.4-0.3l1.1,5.5c4.6-0.1,13.4-0.1,13.4-0.1l0.2-2.1C186.1,36.2,181.2,36.2,178.2,36.2z"/>
		<path class="st0" d="M205.9,20l-2.3-2.6c-0.8,0.1-1.9,0.4-3,0.4c-2.6-0.1-5.5-0.2-7.1-0.2l0.5,2.5c4.2-0.2,7.3-0.5,7.3-0.5
			c-1.2,2-6,8.5-9.1,12.5l1.6,0.7c1.2-1.1,3.3-3.3,5.5-5.7c1.1,1,3.1,3.2,4.9,5.5l1.6-3.3c-1.5-1.1-3.8-2.7-5.3-3.6
			C202.8,23.5,204.8,21.2,205.9,20z"/>
		<path class="st0" d="M228.3,17.6l0.1-1.7c-2.4,0-7.5-0.4-8.8-0.4l0.3,2.3C219.9,17.8,225.8,17.7,228.3,17.6z"/>
		<path class="st0" d="M230.3,21.7l-2.3-2.4c-0.7,0.2-2.1,0.3-3.3,0.3c-2.7-0.1-5-0.2-6.8-0.2l0.6,2.6c2.5-0.2,7-0.6,7-0.6
			c-1.4,2.3-5.5,7.4-8.5,10.9l1.7,0.8c1.4-1.2,3.4-3.1,5.3-4.9c2.7,2.5,4.8,5,4.8,5l1.7-3.1c-1.6-1.1-3.8-2.5-5.1-3.3
			C228.1,24,230.3,21.7,230.3,21.7z"/>
		<path class="st0" d="M163.4,24.4l-0.1-2.1c-1.9,0.3-9.6,0.3-12.3,0.1l0-1.7c3.7,0,7.8,0.1,12.2,0.3v-2c-3.7,0.2-6.8,0.3-12.2,0.1
			l0-1.5c3.2,0.1,8.5,0.2,12.2,0l0.1-2c-7.2,0.2-14.1,0.2-16.2-0.1l0.4,8.7C149.7,24.4,156.9,24.3,163.4,24.4z"/>
		<path class="st0" d="M147,30.8l0.3,1.9c6.4-0.2,12.5-0.1,12.5-0.1s0.3,4.9,0.2,6.2l3-1.5l0.8-6.7C163.8,30.7,150.4,30.8,147,30.8z
			"/>
		<path class="st0" d="M144,26.6l0.7,2.1c11.4-0.4,22-0.2,22-0.2l0.2-2C154.6,27,144,26.6,144,26.6z"/>
	</g>
</g>
</svg>
