<?xml version="1.0" encoding="utf-8"?>
<!-- Generator: Adobe Illustrator 26.0.2, SVG Export Plug-In . SVG Version: 6.00 Build 0)  -->
<svg version="1.1" id="레이어_1" xmlns="http://www.w3.org/2000/svg" xmlns:xlink="http://www.w3.org/1999/xlink" x="0px"
	 y="0px" viewBox="0 0 266 46" style="enable-background:new 0 0 266 46;" xml:space="preserve">
<style type="text/css">
	.st0{fill:#FFFFFF;}
	.st1{opacity:0.56;fill:#FFFFFF;}
</style>
<g>
	<path class="st0" d="M64.4,22.7c-3.5-2.4-7.9-1.4-10.3,2.2c-1.9,3-4.9,3.3-6,3.3c-3.7,0-6.3-2.6-7-5.3h0c0,0,0-0.1,0-0.1
		c0,0,0-0.1,0-0.1c-0.3-1.1-0.4-1.7-0.4-2.9c0-6.5,6.6-13.7,16.2-13.7c9.8,0,15.4,7.5,16.8,11.6c0-0.1-0.1-0.2-0.1-0.2
		C70.8,9.4,63.1,3.6,54.1,3.6c-11.4,0-20.6,9.2-20.6,20.6c0,10.2,7.3,18.9,17.5,18.9c8.1,0,13.6-4.6,16.1-10.8
		C68.5,28.8,67.5,24.8,64.4,22.7"/>
	<path class="st1" d="M73.8,18.1c-1.2-4-6.8-12-17-12c-9.6,0-16.2,7.2-16.2,13.7c0,1.2,0.1,1.7,0.4,2.9c-0.1-0.5-0.2-1-0.2-1.5
		c0-6.7,6.7-11.4,13.7-11.4c9.4,0,17,7.6,17,17c0,7.4-4.2,13.7-10.4,16.8v0c7.9-2.9,13.6-10.5,13.6-19.4
		C74.7,22.1,74.4,20.2,73.8,18.1"/>
	<path class="st0" d="M92.7,26.1v-1.2h-8.2v-2.2h18.9v2.2h-8.2v1.2c0.2,0.1,0.5,0.1,0.7,0.2c0.6,0.3,1.2,0.6,1.6,1
		c0.5,0.5,0.9,0.9,1.1,1.5c0.3,0.6,0.4,1.2,0.4,1.9c0,0.7-0.1,1.3-0.4,1.8c-0.3,0.6-0.7,1.1-1.1,1.5c-0.5,0.4-1,0.8-1.6,1
		c-0.6,0.3-1.3,0.4-2,0.4c-0.7,0-1.4-0.1-2-0.4c-0.6-0.2-1.2-0.6-1.6-1c-0.5-0.4-0.9-0.9-1.1-1.5c-0.3-0.6-0.4-1.2-0.4-1.8
		c0-0.7,0.1-1.3,0.4-1.9c0.3-0.6,0.6-1.1,1.1-1.5c0.5-0.4,1-0.8,1.6-1C92.2,26.2,92.4,26.1,92.7,26.1 M102.1,16.4h-7l7.3,3.9
		l-1.2,1.9L94,18.3l-7.4,3.9l-1.2-1.9l7.3-3.9h-7v-2.2h16.3V16.4z M96.6,30.7c0-0.7-0.3-1.3-0.8-1.8c-0.5-0.5-1.2-0.8-1.9-0.8
		c-0.7,0-1.3,0.3-1.8,0.8c-0.5,0.5-0.8,1.1-0.8,1.8c0,0.7,0.3,1.3,0.8,1.8c0.5,0.5,1.1,0.8,1.8,0.8c0.7,0,1.3-0.3,1.9-0.8
		C96.4,32,96.6,31.4,96.6,30.7"/>
	<path class="st0" d="M113.8,30.8v-5.9h2.6v5.9h8.2v2.3h-18.9v-2.3H113.8z M115.1,18.2l-6.9,8.6l-2-1.5l8.9-11.1l8.9,11.1l-2,1.5
		L115.1,18.2z"/>
	<path class="st0" d="M136.5,25.3h-8.9V14.4h2.4v3h4.1v-3h2.4V25.3z M128.5,34.2v-6.9h2.6v4.6h14.7v2.3H128.5z M134.1,19.6H130v3.6
		h4.1V19.6z M139.1,14h2.4V27h-2.4v-6.3H137v-2.2h2.2V14z M143.1,13.9h2.5v13.2h-2.5V13.9z"/>
	<path class="st0" d="M153.6,16.1v-2.2h2.7v2.2h4.9v2.2H156l5.7,12.7l-2.1,0.9l-4.6-10.5l-4.5,10.6l-2.2-1l5.7-12.8h-5.4v-2.2H153.6
		z M164.3,24.4h-4v-2.3h4v-8.2h2.6v20.6h-2.6V24.4z"/>
	<path class="st0" d="M180.3,31.9h-2.6V17.5h-7.9v-2.3h10.5V31.9z M185.5,13.9h2.6v20.6h-2.6V13.9z"/>
	<path class="st0" d="M203.1,19.3c0,0.7-0.1,1.4-0.4,2c-0.3,0.6-0.7,1.2-1.2,1.7c-0.5,0.5-1.1,0.9-1.7,1.1c-0.7,0.3-1.4,0.4-2.2,0.4
		c-0.8,0-1.5-0.1-2.1-0.4c-0.7-0.3-1.3-0.6-1.8-1.1c-0.5-0.5-0.9-1-1.2-1.7c-0.3-0.6-0.4-1.3-0.4-2c0-0.7,0.1-1.4,0.4-2.1
		c0.3-0.6,0.7-1.2,1.2-1.7c0.5-0.5,1.1-0.9,1.8-1.1c0.7-0.3,1.4-0.4,2.1-0.4c0.8,0,1.5,0.1,2.2,0.4c0.7,0.3,1.2,0.7,1.7,1.1
		c0.5,0.5,0.9,1,1.2,1.7C203,17.9,203.1,18.6,203.1,19.3 M193.5,25.5h2.5v1.9h11.1v-1.9h2.5v8.7h-16.1V25.5z M200.7,19.3
		c0-0.8-0.3-1.5-0.9-2.2c-0.6-0.6-1.3-0.9-2.2-0.9c-0.9,0-1.6,0.3-2.2,0.9c-0.6,0.6-0.9,1.3-0.9,2.2c0,0.9,0.3,1.6,0.9,2.1
		c0.6,0.6,1.3,0.9,2.2,0.9c0.8,0,1.5-0.3,2.2-0.9C200.4,20.9,200.7,20.2,200.7,19.3 M207.1,29.5H196V32h11.1V29.5z M203.8,18.2h3.3
		v-4.3h2.6v10.9h-2.6v-4.4h-3.3V18.2z"/>
	<path class="st0" d="M213.2,27h18.9v2.3h-8.2v5.3h-2.6v-5.3h-8.2V27z M217.2,16.9h10.8v-2.6h2.5v9.9h-15.9v-9.9h2.5V16.9z
		 M228.1,19.1h-10.8V22h10.8V19.1z"/>
</g>
</svg>
