<svg xmlns="http://www.w3.org/2000/svg" width="266" height="45.996" viewBox="0 0 266 45.996">
  <g id="무제-1" transform="translate(-93.45 -73.45)">
    <g id="그룹_49" data-name="그룹 49" transform="translate(93.45 73.45)">
      <g id="그룹_48" data-name="그룹 48" transform="translate(0)">
        <path id="패스_136" data-name="패스 136" d="M234.249,74.828h-2.656v2.58h2.656Zm1.4-1.378v2.58h2.661V73.45Zm-5.527,2.676H227.46V78.7h2.659Zm-3.331.652H224.13v2.578h2.659ZM223.572,82.6h2.656v-2.58h-2.507V77.44h-2.654v2.578h2.5Zm5.718,2.275h2.659V82.3h-2.659Zm3.832-.665h2.659v-2.58h-2.659Zm-4.188,3.81h2.654V85.443h-2.654ZM232,87.767h2.654v-2.58H232Zm1.74-9.23h-2.661v2.578h2.661Zm-6.95,3.555h2.654V79.51h-2.654Zm-.723,3.3h2.661v-2.58h-2.661Zm8.809-4.851h2.659v-2.58h-2.659Zm-8.956,2.524H223.26v-2.58H220.6V77.9H207.32V88.222h8.008v31.222h10.591V88.224h2.656V85.646h-2.656Z" transform="translate(-179.495 -73.45)" fill="#fff"/>
        <path id="패스_137" data-name="패스 137" d="M93.452,122.9h6.832c4.377,0,5.567-1.063,5.567-4.633V91.93h10.886v24.588c0,16.018-6.068,16.893-23.288,16.893V122.9Z" transform="translate(-93.45 -87.414)" fill="#fff"/>
        <path id="패스_138" data-name="패스 138" d="M349.979,91.76H334.43v41.522h10.881V121.917h4.538c9.388,0,14.955-6.256,14.955-15.387A14.453,14.453,0,0,0,349.979,91.76Zm-4.665,20.006V101.9h4.037a4.452,4.452,0,0,1,4.57,4.628C353.92,110.984,351.442,111.719,345.314,111.766Z" transform="translate(-275.544 -87.286)" fill="#fff"/>
      </g>
    </g>
    <g id="그룹_55" data-name="그룹 55" transform="translate(193.269 84.6)">
      <g id="그룹_50" data-name="그룹 50" transform="translate(0 0)">
        <path id="패스_139" data-name="패스 139" d="M580.7,139.689a1.654,1.654,0,0,0,.411-1.2v-19.4h-2.72V140.1h1.359A1.264,1.264,0,0,0,580.7,139.689Z" transform="translate(-559.709 -119.08)" fill="#fff"/>
        <path id="패스_140" data-name="패스 140" d="M509.752,125.344c0-.457.034-.9.076-1.339l.02-.186h3.761V121.3H502.944v2.519h3.6l.017.186a13.28,13.28,0,0,1,.076,1.339c0,4.262-1.928,7.905-4.7,9.3l1.586,1.794A8.524,8.524,0,0,0,508,131.8l.2-.445.2.445a8.517,8.517,0,0,0,4.477,4.645l1.581-1.794C511.68,133.249,509.757,129.606,509.752,125.344Z" transform="translate(-501.94 -120.758)" fill="#fff"/>
        <path id="패스_141" data-name="패스 141" d="M546.907,140.015h1.273a1.173,1.173,0,0,0,.924-.384,1.7,1.7,0,0,0,.388-1.219V119.09H546.9v6.063h-3.8v2.466h3.807Z" transform="translate(-533.042 -119.088)" fill="#fff"/>
      </g>
      <g id="그룹_51" data-name="그룹 51" transform="translate(24.021 0.108)">
        <path id="패스_142" data-name="패스 142" d="M609.567,177.1h1.544a1.548,1.548,0,0,0,1.1-.418,1.482,1.482,0,0,0,.445-1.146V170.5h8.465a1.132,1.132,0,0,0,.877-.364,1.282,1.282,0,0,0,.325-.885V168.03H600.24V170.5h9.332v6.6Z" transform="translate(-600.24 -156.176)" fill="#fff"/>
        <path id="패스_143" data-name="패스 143" d="M615.5,125.825l.178-.276.178.276c1.349,2.111,4.034,3.614,7.321,4.225l1.862-1.879c-3.885-.941-6.859-2.923-7.629-5.894l-.064-.266h6.808v-2.49H607.363v2.49h6.649l-.066.266c-.77,2.969-3.744,4.951-7.627,5.894l1.862,1.879C611.466,129.441,614.157,127.936,615.5,125.825Z" transform="translate(-604.834 -119.52)" fill="#fff"/>
      </g>
      <path id="패스_144" data-name="패스 144" d="M1013.972,119.09h-3.091v9.3a2.971,2.971,0,0,1-1.012,2.5,5.59,5.59,0,0,1-2.93.919l-.23.02V122.12h2.018v-2.49H995.1v2.49h2.2v9.767H994.87v2.49h9.982c2.639,0,4.518-.6,5.664-1.767l.359-.369v6.068a.222.222,0,0,1,0,.056v1.53h1.486c.056.007.076.012.083.007a1.537,1.537,0,0,0,1.078-.413,1.5,1.5,0,0,0,.44-1.178V127.645h3.695v-2.517h-3.695V119.09Zm-10.241,12.592v.205h-3.441V122.12h3.441Z" transform="translate(-874.417 -119.088)" fill="#fff"/>
      <g id="그룹_52" data-name="그룹 52" transform="translate(48.76 0)">
        <path id="패스_145" data-name="패스 145" d="M774.657,139.968a1.333,1.333,0,0,0,.924-.418,1.647,1.647,0,0,0,.425-1.2l0-19.265H773.23v20.886h1.427Z" transform="translate(-755.697 -119.08)" fill="#fff"/>
        <path id="패스_146" data-name="패스 146" d="M713.825,130.182l-.1.064a14.5,14.5,0,0,1-3.985,1.691.052.052,0,0,1-.024.01c-.386.1-.731.169-1.012.217-.11.02-.222.039-.347.051-.083.015-.159.024-.22.034-.364.032-.74.054-1.122.054-.257,0-.516-.012-.775-.029a1.756,1.756,0,0,1-1.821-1.933v-2.287h4.768v-2.268H704.42v-3.792h5.87v-2.4H701.48v10.752a4.651,4.651,0,0,0,1.048,3.384,4.381,4.381,0,0,0,3.081,1.065c.169.007.332.01.5.01a12.484,12.484,0,0,0,1.967-.154l.134-.022h0a13.234,13.234,0,0,0,5.29-1.943l.332-.237v7.495h1.388a1.289,1.289,0,0,0,.975-.435,1.681,1.681,0,0,0,.411-1.214V119.1h-2.778v6.573h-3.2v2.353h3.2Z" transform="translate(-701.48 -119.095)" fill="#fff"/>
      </g>
      <path id="패스_147" data-name="패스 147" d="M909.443,133.076l.208,0c.775-.024,1.5-.073,2.175-.149h.007l.015,0h0l.007,0,.034,0h0c.144-.02.288-.042.435-.064a.761.761,0,0,0,.088-.012c.127-.015.249-.039.371-.056.154-.024.305-.054.462-.086l-.012,0a8.748,8.748,0,0,0,2.573-.824c.015-.012.022-.022.037-.024v-2.282a10.252,10.252,0,0,1-1.491.5h-.029a3.12,3.12,0,0,1-.315.078c-.65.154-1.234.247-1.579.3a24.433,24.433,0,0,1-3.221.193h-4.435a1.322,1.322,0,0,1-1.469-1.476V120.89h-3.059v8.755c.029,2.361,1.019,3.4,3.24,3.431h2.886V137.7H897.02v2.461H917.9a1.1,1.1,0,0,0,.88-.347,1.222,1.222,0,0,0,.325-.843l0-.154V137.7h-9.672v-4.626Z" transform="translate(-800.478 -120.448)" fill="#fff"/>
      <g id="그룹_53" data-name="그룹 53" transform="translate(144.095 0.435)">
        <path id="패스_148" data-name="패스 148" d="M1113.38,190.928a1.3,1.3,0,0,0,.325-.885V188.77H1091.62v2.519H1112.5A1.116,1.116,0,0,0,1113.38,190.928Z" transform="translate(-1091.62 -172.175)" fill="#fff"/>
        <path id="패스_149" data-name="패스 149" d="M1115.387,130.3l.244-.034,0,.249c-.042,1.214-.083,2.106-.129,2.688-.049.42-.2,1.847-.315,2.556h2.761c.015-.064.046-.152.073-.279.078-.332.191-.9.325-1.864v-.007l.015-.1a32.118,32.118,0,0,0,.31-5.022V120.86h-15.72v2.458h12.707v4.816l-12.966,0v2.38h9.667A22.011,22.011,0,0,0,1115.387,130.3Z" transform="translate(-1099.985 -120.86)" fill="#fff"/>
      </g>
      <g id="그룹_54" data-name="그룹 54" transform="translate(71.735 0.435)">
        <path id="패스_150" data-name="패스 150" d="M817.59,190.043V188.77H795.5v2.514l20.888,0a1.1,1.1,0,0,0,.875-.359A1.291,1.291,0,0,0,817.59,190.043Z" transform="translate(-795.5 -172.175)" fill="#fff"/>
        <path id="패스_151" data-name="패스 151" d="M819.272,130.3l.244-.034-.007.249c-.037,1.214-.078,2.106-.13,2.688-.046.42-.2,1.847-.315,2.556h2.761c.02-.064.044-.152.073-.279.078-.332.186-.9.327-1.864l0-.007.02-.1a32.161,32.161,0,0,0,.308-5.022V120.86h-15.72v2.458h12.709v4.816l-12.968,0v2.38h9.667A22.132,22.132,0,0,0,819.272,130.3Z" transform="translate(-803.865 -120.86)" fill="#fff"/>
      </g>
    </g>
    <g id="그룹_58" data-name="그룹 58" transform="translate(193.174 109.537)">
      <g id="그룹_56" data-name="그룹 56" transform="translate(0 0.164)">
        <path id="패스_152" data-name="패스 152" d="M503.588,228.183c0,.687,0,1.686-1.173,1.686a2.238,2.238,0,0,1-.865-.161v1.659a4.825,4.825,0,0,0,1.381.176,2.34,2.34,0,0,0,2.461-2.444v-7.3h-1.8Z" transform="translate(-501.55 -221.8)" fill="#fff"/>
        <path id="패스_153" data-name="패스 153" d="M526.118,227.188h3.211v-1.508h-3.211v-2.363h3.509V221.81h-4.367a.962.962,0,0,0-.951.938v7.71a.963.963,0,0,0,.963.931h4.379v-1.513h-3.533Z" transform="translate(-518.748 -221.808)" fill="#fff"/>
        <path id="패스_154" data-name="패스 154" d="M552.586,228.183c0,.687,0,1.686-1.17,1.686a2.257,2.257,0,0,1-.865-.161v1.659a4.836,4.836,0,0,0,1.381.176,2.343,2.343,0,0,0,2.463-2.444v-7.3h-1.808Z" transform="translate(-538.576 -221.8)" fill="#fff"/>
        <path id="패스_155" data-name="패스 155" d="M578.615,227.34c0,1.63-.486,2.7-1.867,2.7s-1.874-1.07-1.874-2.7v-5.53h-1.8v6.121c0,2.563,1.366,3.621,3.678,3.621s3.673-1.058,3.673-3.621V221.81h-1.806Z" transform="translate(-555.593 -221.808)" fill="#fff"/>
      </g>
      <g id="그룹_57" data-name="그룹 57" transform="translate(28.722)">
        <path id="패스_156" data-name="패스 156" d="M619.09,223.308h2.576v8.071h.86a.96.96,0,0,0,.951-.936v-7.135h2.578V221.8H619.09Z" transform="translate(-619.09 -221.636)" fill="#fff"/>
        <path id="패스_157" data-name="패스 157" d="M653.656,227.178h3.211v-1.508h-3.211v-2.363h3.509V221.8h-4.379a.963.963,0,0,0-.936.929v7.712a.955.955,0,0,0,.933.936h4.408v-1.51h-3.536Z" transform="translate(-643.845 -221.636)" fill="#fff"/>
        <path id="패스_158" data-name="패스 158" d="M683.471,229.529c-1.923,0-3.059-1.469-3.059-3.416s1.163-3.472,3.02-3.472a3.529,3.529,0,0,1,1.948.508l.13-1.62a5.664,5.664,0,0,0-2.038-.4c-3.059,0-4.941,1.84-4.941,5.119,0,3.238,2.023,4.789,4.941,4.789a8.7,8.7,0,0,0,2.053-.3l-.078-1.605A4.835,4.835,0,0,1,683.471,229.529Z" transform="translate(-664.005 -221.13)" fill="#fff"/>
        <path id="패스_159" data-name="패스 159" d="M719.8,230.424V221.8H718v3.871h-3.614V221.8h-1.8v9.577h.853a.956.956,0,0,0,.951-.941v-3.257H718v4.2h.85A.962.962,0,0,0,719.8,230.424Z" transform="translate(-689.735 -221.636)" fill="#fff"/>
        <path id="패스_160" data-name="패스 160" d="M756.842,230.445V221.8h-1.728v7.165h-.029l-3.426-7.165H749.44v9.577h.762a.955.955,0,0,0,.963-.941v-6.219h.027l3.445,7.16h1.254A.956.956,0,0,0,756.842,230.445Z" transform="translate(-717.587 -221.636)" fill="#fff"/>
        <path id="패스_161" data-name="패스 161" d="M790.083,221.13c-2.864,0-4.413,1.992-4.413,4.926s1.527,4.983,4.413,4.983c2.852,0,4.413-2.089,4.413-4.983S792.91,221.13,790.083,221.13Zm0,8.4c-1.842,0-2.527-1.745-2.527-3.472,0-1.689.736-3.416,2.527-3.416s2.527,1.728,2.527,3.416C792.612,227.784,791.931,229.529,790.083,229.529Z" transform="translate(-744.964 -221.13)" fill="#fff"/>
        <path id="패스_162" data-name="패스 162" d="M829.747,221.8H827.46v9.577h.88a.963.963,0,0,0,.931-.946v-2.688h.758c1.933,0,3.47-.809,3.47-3.047C833.5,222.406,831.707,221.8,829.747,221.8Zm.154,4.433h-.63v-2.925h.63c.931,0,1.718.386,1.718,1.5S830.8,226.233,829.9,226.233Z" transform="translate(-776.542 -221.636)" fill="#fff"/>
        <path id="패스_163" data-name="패스 163" d="M852.819,221.8l-3.509,9.577h1.869l.789-2.192h3.651l.775,2.192h2l-3.531-9.577Zm-.337,5.874,1.307-3.949h.02l1.3,3.949Z" transform="translate(-793.053 -221.636)" fill="#fff"/>
        <path id="패스_164" data-name="패스 164" d="M894.485,226.638v-.029a2.15,2.15,0,0,0,1.855-2.224c0-2.661-2.309-2.6-4.242-2.6H890.15v9.577h.86a.958.958,0,0,0,.946-.872v-3.106h.579c.762,0,.995.274,1.254.99l1.08,2.989h2.013l-1.442-3.744C895.257,227.2,894.976,226.677,894.485,226.638Zm-1.935-.758h-.594V223.3h.594c.9,0,1.908.1,1.908,1.254C894.458,225.743,893.437,225.88,892.55,225.88Z" transform="translate(-823.913 -221.628)" fill="#fff"/>
        <path id="패스_165" data-name="패스 165" d="M923.973,226.926l3.24,4.443h2.358l-3.854-5.063,3.7-4.516H927.2l-3.248,4.117v-4.115H922.14v9.577h.865a.963.963,0,0,0,.946-.938v-3.5Z" transform="translate(-848.086 -221.629)" fill="#fff"/>
      </g>
    </g>
  </g>
</svg>
