<?xml version="1.0" encoding="utf-8"?>
<!-- Generator: Adobe Illustrator 26.0.2, SVG Export Plug-In . SVG Version: 6.00 Build 0)  -->
<svg version="1.1" id="레이어_1" xmlns="http://www.w3.org/2000/svg" xmlns:xlink="http://www.w3.org/1999/xlink" x="0px"
	 y="0px" viewBox="0 0 266 46" style="enable-background:new 0 0 266 46;" xml:space="preserve">
<style type="text/css">
	.st0{fill:url(#SVGID_1_);}
	.st1{fill:#8DC21F;}
	.st2{fill:url(#SVGID_00000098207778119281910330000012883391699262578854_);}
	.st3{fill:#231815;}
</style>
<g>
	<g>
		<g>
			<linearGradient id="SVGID_1_" gradientUnits="userSpaceOnUse" x1="43.1598" y1="3.9781" x2="43.1598" y2="45.3683">
				<stop  offset="0" style="stop-color:#009FE8"/>
				<stop  offset="1" style="stop-color:#1D2087"/>
			</linearGradient>
			<path class="st0" d="M54.6,1.4h-2.6v2.6h2.6V1.4z M55.9,0v2.6h2.6V0H55.9z M50.4,2.7h-2.6v2.6h2.6V2.7z M47.1,3.3h-2.7v2.6h2.7
				V3.3z M43.9,9.1h2.6V6.5h-2.5V4h-2.6v2.6h2.5V9.1z M49.6,11.4h2.6V8.8h-2.6V11.4z M53.4,10.7h2.6V8.2h-2.6V10.7z M49.3,14.5h2.6
				v-2.6h-2.6V14.5z M52.3,14.3H55v-2.6h-2.6V14.3z M54,5.1h-2.6v2.6H54V5.1z M47.1,8.6h2.6V6h-2.6V8.6z M46.4,11.9h2.6V9.3h-2.6
				V11.9z M55.2,7.1h2.6V4.5h-2.6V7.1z M46.3,9.6h-2.6V7H41V4.4H27.7v10.3h8v31.1h10.6V14.7h2.6v-2.6h-2.6V9.6z"/>
			<path class="st1" d="M0,35.4h6.8c4.4,0,5.5-1.1,5.5-4.6V4.5h10.8V29c0,16-6,16.8-23.2,16.8V35.4z"/>
			
				<linearGradient id="SVGID_00000150072237427704236250000005913181992784059823_" gradientUnits="userSpaceOnUse" x1="73.8051" y1="4.2312" x2="73.8051" y2="45.6037">
				<stop  offset="0" style="stop-color:#009FE8"/>
				<stop  offset="1" style="stop-color:#1D2087"/>
			</linearGradient>
			<path style="fill:url(#SVGID_00000150072237427704236250000005913181992784059823_);" d="M74.2,4.5H58.7v41.4h10.8V34.5H74
				c9.4,0,14.9-6.2,14.9-15.3C88.9,10.4,82.3,4.5,74.2,4.5z M69.5,24.4v-9.8h4c2.9,0,4.6,2.2,4.6,4.6C78.1,23.6,75.6,24.3,69.5,24.4
				z"/>
		</g>
	</g>
	<g>
		<g>
			<path class="st3" d="M120.6,31.5c0.3-0.3,0.4-0.7,0.4-1.2V10.9h-2.7v21h1.4C120,31.9,120.3,31.8,120.6,31.5z"/>
			<path class="st3" d="M107.4,15.5c0-0.5,0-0.9,0.1-1.3l0-0.2h3.8v-2.5h-10.7v2.5h3.6l0,0.2c0,0.4,0.1,0.9,0.1,1.3
				c0,4.3-1.9,7.9-4.7,9.3l1.6,1.8c1.8-0.7,3.5-2.4,4.5-4.6l0.2-0.4l0.2,0.4c1,2.3,2.7,4,4.5,4.6l1.6-1.8
				C109.3,23.4,107.4,19.7,107.4,15.5z"/>
			<path class="st3" d="M113.4,31.8c0.3,0,1,0,1.3,0c0.4,0,0.7-0.1,0.9-0.4c0.3-0.3,0.4-0.7,0.4-1.2V10.9h-2.6v5.9v0.2h-3.8v2.5h3.8
				V31.8z"/>
		</g>
		<g>
			<path class="st3" d="M132.9,31.9h1.5c0.4,0,0.8-0.1,1.1-0.4c0.3-0.3,0.4-0.6,0.4-1.1v-5h8.5c0.4,0,0.7-0.1,0.9-0.4
				c0.2-0.3,0.3-0.5,0.3-0.9v-1.2h-22.1v2.5h9.3V31.9z"/>
			<path class="st3" d="M134.3,17.3l0.2-0.3l0.2,0.3c1.3,2.1,4,3.6,7.3,4.2l1.9-1.9c-3.9-0.9-6.9-2.9-7.6-5.9l-0.1-0.3h6.8V11h-16.8
				v2.5h6.6l-0.1,0.3c-0.8,3-3.7,5-7.6,5.9l1.9,1.9C130.2,20.9,132.9,19.4,134.3,17.3z"/>
		</g>
		<path class="st3" d="M239.1,10.9H236v9.3c0,1.1-0.3,2-1,2.5c-0.7,0.5-1.6,0.8-2.9,0.9l-0.2,0v-9.7h2v-2.5h-13.6v2.5h2.2v9.8H220
			v2.5h10c2.6,0,4.5-0.6,5.7-1.8L236,24v6.1c0,0,0,0,0,0.1v1.5h1.5c0.1,0,0.1,0,0.1,0c0.4,0,0.8-0.1,1.1-0.4
			c0.3-0.3,0.4-0.6,0.4-1.2V19.4h3.7v-2.5h-3.5h-0.2V10.9z M228.9,23.5v0.2h-3.4v-9.8h3.4V23.5z"/>
		<g>
			<path class="st3" d="M167.3,31.8c0.3,0,0.6-0.1,0.9-0.4c0.3-0.3,0.4-0.7,0.4-1.2l0-19.3h-2.8v20.9H167.3
				C167.2,31.8,167.2,31.8,167.3,31.8L167.3,31.8z"/>
			<path class="st3" d="M160.7,22L160.7,22c-1.6,1-3,1.5-4.1,1.8c0,0,0,0,0,0c-0.4,0.1-0.7,0.2-1,0.2c-0.1,0-0.2,0-0.4,0.1
				c-0.1,0-0.2,0-0.2,0c-0.4,0-0.7,0.1-1.1,0.1c-0.3,0-0.5,0-0.8,0c-1.2,0-1.8-0.8-1.8-1.9v-2.3h4.8v-2.3h-4.8v-3.8h5.9v-2.4h-8.8
				v10.8c0,1.6,0.4,2.7,1,3.4c0.6,0.6,1.6,1,3.1,1.1c0.2,0,0.3,0,0.5,0c0.7,0,1.3-0.1,2-0.2l0.1,0l0,0c3.1-0.5,5-1.7,5.3-1.9
				l0.3-0.2v7.5h1.4c0.4,0,0.7-0.1,1-0.4c0.3-0.3,0.4-0.7,0.4-1.2V10.9h-2.8v6.4v0.2h-3.2v2.4h3.2V22z"/>
		</g>
		<path class="st3" d="M208.5,23.5l0.2,0c0.8,0,1.5-0.1,2.2-0.1l0,0h0l0,0l0,0l0,0l0,0l0,0c0.1,0,0.3,0,0.4-0.1c0,0,0.1,0,0.1,0
			c0.1,0,0.2,0,0.4-0.1c0.2,0,0.3-0.1,0.5-0.1l0,0c1.6-0.3,2.3-0.7,2.6-0.8c0,0,0,0,0,0V20c-0.5,0.2-1,0.4-1.5,0.5l0,0h0
			c-0.1,0-0.2,0.1-0.3,0.1c-0.7,0.2-1.2,0.2-1.6,0.3c-1,0.1-2,0.2-3.2,0.2h-4.4c-0.4,0-0.8-0.1-1.1-0.4c-0.3-0.3-0.4-0.6-0.4-1.1
			v-8.3h-3.1v8.8c0,2.4,1,3.4,3.2,3.4h2.9v4.6h-9.4v2.5H217c0.4,0,0.7-0.1,0.9-0.3c0.2-0.2,0.3-0.5,0.3-0.8l0-0.2v-1.1h-9.5h-0.2
			V23.5z"/>
		<g>
			<path class="st3" d="M265.4,30.1c0.2-0.3,0.3-0.5,0.3-0.9v-1.3h-22.1v2.5h20.9C264.9,30.4,265.2,30.3,265.4,30.1z"/>
			<path class="st3" d="M259.1,20.7l0.2,0l0,0.2c0,1.2-0.1,2.1-0.1,2.7c0,0.4-0.2,1.8-0.3,2.6h2.8c0-0.1,0-0.1,0.1-0.3
				c0.1-0.3,0.2-0.9,0.3-1.9l0,0l0-0.1c0.2-1.2,0.3-2.9,0.3-5v-7.6h-15.7v2.5h12.7v4.8l-13,0V21h9.7C257,21,258.1,20.9,259.1,20.7z"
				/>
		</g>
		<g>
			<path class="st3" d="M193.4,29.2v-1.3h-22.1v2.5l20.9,0c0.4,0,0.7-0.1,0.9-0.4C193.3,29.8,193.4,29.5,193.4,29.2z"/>
			<path class="st3" d="M186.7,20.7l0.2,0l0,0.2c0,1.2-0.1,2.1-0.1,2.7c0,0.4-0.2,1.8-0.3,2.6h2.8c0-0.1,0-0.1,0.1-0.3
				c0.1-0.3,0.2-0.9,0.3-1.9l0,0l0-0.1c0.2-1.2,0.3-2.9,0.3-5v-7.6h-15.7v2.5H187v4.8l-13,0V21h9.7C184.7,21,185.7,20.9,186.7,20.7z
				"/>
		</g>
	</g>
	<g>
		<g>
			<path d="M101.9,42.5c0,0.7,0,1.7-1.2,1.7c-0.4,0-0.6-0.1-0.9-0.2v1.7c0.5,0.1,0.9,0.2,1.4,0.2c1.8,0,2.5-1.4,2.5-2.4v-7.3h-1.8
				V42.5z"/>
			<path d="M107.2,41.5h3.2V40h-3.2v-2.4h3.5v-1.5h-4.4c-0.5,0-0.9,0.4-0.9,0.9v7.7c0,0.5,0.4,0.9,1,0.9l0,0h4.4v-1.5h-3.5V41.5z"/>
			<path d="M113.8,42.5c0,0.7,0,1.7-1.2,1.7c-0.4,0-0.6-0.1-0.9-0.2v1.7c0.5,0.1,0.9,0.2,1.4,0.2c1.8,0,2.5-1.4,2.5-2.4v-7.3h-1.8
				V42.5z"/>
			<path d="M122.8,41.6c0,1.6-0.5,2.7-1.9,2.7c-1.4,0-1.9-1.1-1.9-2.7v-5.5h-1.8v6.1c0,2.6,1.4,3.6,3.7,3.6c2.3,0,3.7-1.1,3.7-3.6
				v-6.1h-1.8V41.6z"/>
		</g>
		<g>
			<path d="M128.5,37.6h2.6v8h0.9c0.5,0,0.9-0.4,0.9-0.9v-7.1h2.6v-1.5h-6.9V37.6z"/>
			<path d="M138.3,41.5h3.2V40h-3.2v-2.4h3.5v-1.5h-4.4c-0.5,0-0.9,0.4-0.9,0.9v7.7c0,0.5,0.4,0.9,0.9,0.9h4.4v-1.5h-3.5V41.5z"/>
			<path d="M147.9,44.3c-1.9,0-3-1.5-3-3.4c0-2,1.2-3.5,3-3.5c0.6,0,1.3,0.1,1.9,0.5l0.1-1.6c-0.7-0.3-1.4-0.4-2-0.4
				c-3,0-4.9,1.8-4.9,5.1c0,3.2,2,4.8,4.9,4.8c0.7,0,1.4-0.1,2-0.3l-0.1-1.6C149.4,44.2,148.6,44.3,147.9,44.3z"/>
			<path d="M158.5,44.7v-8.6h-1.8V40h-3.6v-3.9h-1.8v9.5h0.9c0.5,0,0.9-0.4,0.9-0.9v-3.2h3.6v4.2h0.8
				C158,45.7,158.5,45.2,158.5,44.7z"/>
			<path d="M167.6,44.7v-8.6h-1.7v7.1h0l-3.4-7.1h-2.2v9.5h0.8c0.5,0,0.9-0.4,1-0.9v-6.2h0l3.4,7.1h1.3
				C167.2,45.7,167.6,45.3,167.6,44.7z"/>
			<path d="M173.5,36c-2.9,0-4.4,2-4.4,4.9c0,2.9,1.5,5,4.4,5c2.8,0,4.4-2.1,4.4-5C177.9,38,176.3,36,173.5,36z M173.5,44.3
				c-1.8,0-2.5-1.7-2.5-3.5c0-1.7,0.7-3.4,2.5-3.4c1.8,0,2.5,1.7,2.5,3.4C176,42.6,175.3,44.3,173.5,44.3z"/>
			<path d="M181.5,36.1h-2.3v9.5h0.9c0.5,0,0.9-0.4,0.9-0.9V42h0.8c1.9,0,3.5-0.8,3.5-3C185.3,36.7,183.5,36.1,181.5,36.1z
				 M181.7,40.5h-0.6v-2.9h0.6c0.9,0,1.7,0.4,1.7,1.5C183.4,40.2,182.6,40.5,181.7,40.5z"/>
			<path d="M188.1,36.1l-3.5,9.5h1.9l0.8-2.2h3.6l0.8,2.2h2l-3.5-9.5H188.1z M187.7,42L189,38h0l1.3,3.9H187.7z"/>
			<path d="M198.8,40.9L198.8,40.9c1.1-0.2,1.8-1.1,1.8-2.2c0-2.7-2.3-2.6-4.2-2.6h-1.9v9.5h0.9c0.5,0,0.9-0.4,0.9-0.9v-3.1h0.6
				c0.8,0,1,0.3,1.2,1l1.1,3h2l-1.4-3.7C199.6,41.5,199.3,41,198.8,40.9z M196.9,40.2h-0.6v-2.6h0.6c0.9,0,1.9,0.1,1.9,1.2
				C198.8,40.1,197.8,40.2,196.9,40.2z"/>
			<path d="M204.1,41.2l3.2,4.4h2.3l-3.8-5l3.7-4.5h-2.2l-3.2,4.1v-4.1h-1.8v9.5h0.9c0.5,0,0.9-0.4,0.9-0.9L204.1,41.2L204.1,41.2z"
				/>
		</g>
	</g>
</g>
</svg>
