<svg xmlns="http://www.w3.org/2000/svg" width="72.485" height="72.428" viewBox="0 0 72.485 72.428">
  <g id="그룹_462" data-name="그룹 462" transform="translate(1.5 1.5)">
    <g id="그룹_458" data-name="그룹 458" transform="translate(0 0)">
      <g id="그룹_443" data-name="그룹 443" transform="translate(33.69)">
        <path id="패스_1474" data-name="패스 1474" d="M700.373,692.535a4.206,4.206,0,0,0-6.231-5.386,10.528,10.528,0,0,0-19.71,5.15c0,.032,0,.064,0,.1a7.518,7.518,0,0,0,2.4,14.642h20.755a7.517,7.517,0,0,0,2.78-14.5Z" transform="translate(-669.318 -681.771)" fill="#75d8ff" stroke="#3e3a39" stroke-linecap="round" stroke-linejoin="round" stroke-width="3"/>
        <path id="패스_1475" data-name="패스 1475" d="M692.725,689.483a6.3,6.3,0,0,0-6.3,6.307" transform="translate(-677.104 -685.282)" fill="none" stroke="#fff" stroke-linecap="round" stroke-linejoin="round" stroke-width="3"/>
      </g>
      <g id="그룹_457" data-name="그룹 457" transform="translate(0 6.309)">
        <g id="그룹_444" data-name="그룹 444" transform="translate(32.793 9.704)">
          <path id="패스_1476" data-name="패스 1476" d="M672.31,711.168a8.031,8.031,0,0,0,0,14.56,8.031,8.031,0,0,0,0-14.56Z" transform="translate(-667.671 -711.168)" fill="#d7ff36" stroke="#3e3a39" stroke-linecap="round" stroke-linejoin="round" stroke-width="3"/>
          <line id="선_114" data-name="선 114" y2="12.993" transform="translate(4.64 4.496)" fill="#d7ff36" stroke="#3e3a39" stroke-linecap="round" stroke-linejoin="round" stroke-width="3"/>
        </g>
        <g id="그룹_445" data-name="그룹 445" transform="translate(5.112)">
          <path id="패스_1477" data-name="패스 1477" d="M617.413,693.911a9.292,9.292,0,1,0,9.753,2.16A9.3,9.3,0,0,0,617.413,693.911Z" transform="translate(-616.855 -693.353)" fill="#d7ff36" stroke="#3e3a39" stroke-linecap="round" stroke-linejoin="round" stroke-width="3"/>
          <line id="선_115" data-name="선 115" x2="10.632" y2="10.631" transform="translate(4.236 4.236)" fill="#d7ff36" stroke="#3e3a39" stroke-linecap="round" stroke-linejoin="round" stroke-width="3"/>
        </g>
        <g id="그룹_455" data-name="그룹 455" transform="translate(0 26.538)">
          <line id="선_116" data-name="선 116" x2="7.224" transform="translate(61.361 30.018)" fill="none" stroke="#3e3a39" stroke-linecap="round" stroke-linejoin="round" stroke-width="3"/>
          <g id="그룹_454" data-name="그룹 454">
            <line id="선_117" data-name="선 117" x2="7.224" transform="translate(61.361 22.794)" fill="none" stroke="#3e3a39" stroke-linecap="round" stroke-linejoin="round" stroke-width="3"/>
            <g id="그룹_453" data-name="그룹 453">
              <g id="그룹_452" data-name="그룹 452">
                <rect id="사각형_199" data-name="사각형 199" width="20.548" height="28.092" transform="translate(40.974 8.489)" fill="#dcdddd" stroke="#3e3a39" stroke-linecap="round" stroke-linejoin="round" stroke-width="3"/>
                <g id="그룹_451" data-name="그룹 451">
                  <g id="그룹_448" data-name="그룹 448" transform="translate(4.695)">
                    <g id="그룹_446" data-name="그룹 446">
                      <path id="패스_1478" data-name="패스 1478" d="M632.7,765.661l-3.431-18.317h-9.751l-3.432,18.317Z" transform="translate(-616.09 -744.471)" fill="#0b703e" stroke="#3e3a39" stroke-linecap="round" stroke-linejoin="round" stroke-width="3"/>
                      <path id="패스_1479" data-name="패스 1479" d="M632.527,744a1.927,1.927,0,0,1-1.927,1.926H620.005A1.926,1.926,0,0,1,618.079,744h0a1.927,1.927,0,0,1,1.926-1.927H630.6A1.927,1.927,0,0,1,632.527,744Z" transform="translate(-616.995 -742.071)" fill="#fff" stroke="#3e3a39" stroke-linecap="round" stroke-linejoin="round" stroke-width="3"/>
                    </g>
                    <g id="그룹_447" data-name="그룹 447" transform="translate(24.72)">
                      <path id="패스_1480" data-name="패스 1480" d="M678.086,765.661l-3.432-18.317H664.9l-3.432,18.317Z" transform="translate(-661.471 -744.471)" fill="#0b703e" stroke="#3e3a39" stroke-linecap="round" stroke-linejoin="round" stroke-width="3"/>
                      <path id="패스_1481" data-name="패스 1481" d="M677.908,744a1.926,1.926,0,0,1-1.926,1.926H665.387A1.927,1.927,0,0,1,663.461,744h0a1.927,1.927,0,0,1,1.926-1.927h10.594A1.927,1.927,0,0,1,677.908,744Z" transform="translate(-662.377 -742.071)" fill="#fff" stroke="#3e3a39" stroke-linecap="round" stroke-linejoin="round" stroke-width="3"/>
                    </g>
                  </g>
                  <g id="그룹_450" data-name="그룹 450" transform="translate(0 20.529)">
                    <rect id="사각형_200" data-name="사각형 200" width="50.726" height="16.052" fill="#fff" stroke="#3e3a39" stroke-linecap="round" stroke-linejoin="round" stroke-width="3"/>
                    <g id="그룹_449" data-name="그룹 449" transform="translate(0 3.371)">
                      <rect id="사각형_201" data-name="사각형 201" width="50.726" height="3.05" transform="translate(0 6.26)" fill="#75d8ff" stroke="#3e3a39" stroke-linecap="round" stroke-linejoin="round" stroke-width="3"/>
                      <rect id="사각형_202" data-name="사각형 202" width="50.726" height="3.05" fill="#75d8ff" stroke="#3e3a39" stroke-linecap="round" stroke-linejoin="round" stroke-width="3"/>
                    </g>
                  </g>
                </g>
              </g>
              <path id="패스_1482" data-name="패스 1482" d="M721.589,768.559h0a7.321,7.321,0,0,1,7.321,7.321v14.831" transform="translate(-659.425 -754.13)" fill="none" stroke="#3e3a39" stroke-linecap="round" stroke-linejoin="round" stroke-width="3"/>
            </g>
          </g>
        </g>
        <g id="그룹_456" data-name="그룹 456" transform="translate(10.504 6.555)">
          <path id="패스_1483" data-name="패스 1483" d="M647.877,706.13A12.389,12.389,0,0,0,632,722.011a12.388,12.388,0,0,0,15.882-15.882Z" transform="translate(-628.802 -705.386)" fill="#d7ff36" stroke="#3e3a39" stroke-linecap="round" stroke-linejoin="round" stroke-width="3"/>
          <line id="선_118" data-name="선 118" x1="14.172" y2="14.173" transform="translate(0 5.647)" fill="#d7ff36" stroke="#3e3a39" stroke-linecap="round" stroke-linejoin="round" stroke-width="3"/>
        </g>
      </g>
    </g>
    <circle id="타원_342" data-name="타원 342" cx="1.634" cy="1.634" r="1.634" transform="translate(23.675 37.803)" fill="none" stroke="#dcdddd" stroke-linecap="round" stroke-linejoin="round" stroke-width="3"/>
    <circle id="타원_343" data-name="타원 343" cx="1.634" cy="1.634" r="1.634" transform="translate(3.248 22.005)" fill="none" stroke="#dcdddd" stroke-linecap="round" stroke-linejoin="round" stroke-width="3"/>
    <circle id="타원_344" data-name="타원 344" cx="1.634" cy="1.634" r="1.634" transform="translate(31.846 5.119)" fill="none" stroke="#dcdddd" stroke-linecap="round" stroke-linejoin="round" stroke-width="3"/>
    <g id="그룹_459" data-name="그룹 459" transform="translate(19.227 3.802)">
      <line id="선_119" data-name="선 119" x2="3.541" transform="translate(0 1.77)" fill="none" stroke="#dcdddd" stroke-linecap="round" stroke-linejoin="round" stroke-width="3"/>
      <line id="선_120" data-name="선 120" y2="3.541" transform="translate(1.77)" fill="none" stroke="#dcdddd" stroke-linecap="round" stroke-linejoin="round" stroke-width="3"/>
    </g>
    <g id="그룹_460" data-name="그룹 460" transform="translate(0.888 39.573)">
      <line id="선_121" data-name="선 121" x2="3.541" transform="translate(0 1.77)" fill="none" stroke="#dcdddd" stroke-linecap="round" stroke-linejoin="round" stroke-width="3"/>
      <line id="선_122" data-name="선 122" y2="3.541" transform="translate(1.77)" fill="none" stroke="#dcdddd" stroke-linecap="round" stroke-linejoin="round" stroke-width="3"/>
    </g>
    <g id="그룹_461" data-name="그룹 461" transform="translate(51.184 31.583)">
      <line id="선_123" data-name="선 123" x2="3.541" transform="translate(0 1.77)" fill="none" stroke="#dcdddd" stroke-linecap="round" stroke-linejoin="round" stroke-width="3"/>
      <line id="선_124" data-name="선 124" y2="3.541" transform="translate(1.77)" fill="none" stroke="#dcdddd" stroke-linecap="round" stroke-linejoin="round" stroke-width="3"/>
    </g>
  </g>
</svg>
