<svg xmlns="http://www.w3.org/2000/svg" width="69.811" height="72.485" viewBox="0 0 69.811 72.485">
  <g id="그룹_475" data-name="그룹 475" transform="translate(1.5 1.5)">
    <g id="그룹_465" data-name="그룹 465" transform="translate(41.432 35.167)">
      <line id="선_125" data-name="선 125" x1="12.025" transform="translate(5.266 17.159)" fill="none" stroke="#dcdddd" stroke-linecap="round" stroke-linejoin="round" stroke-width="3"/>
      <g id="그룹_463" data-name="그룹 463" transform="translate(0 3.268)">
        <path id="패스_1484" data-name="패스 1484" d="M470.783,752.277l-5.447,5.447H448.994" transform="translate(-448.994 -752.277)" fill="none" stroke="#dcdddd" stroke-linecap="round" stroke-linejoin="round" stroke-width="3"/>
        <path id="패스_1485" data-name="패스 1485" d="M471.846,798.725l-5.447-5.447h-15.07" transform="translate(-450.057 -770.943)" fill="none" stroke="#dcdddd" stroke-linecap="round" stroke-linejoin="round" stroke-width="3"/>
      </g>
      <g id="그룹_464" data-name="그룹 464" transform="translate(17.341)">
        <ellipse id="타원_345" data-name="타원 345" cx="1.907" cy="1.907" rx="1.907" ry="1.907" transform="translate(4.226)" fill="none" stroke="#dcdddd" stroke-linecap="round" stroke-linejoin="round" stroke-width="3"/>
        <ellipse id="타원_346" data-name="타원 346" cx="1.907" cy="1.907" rx="1.907" ry="1.907" transform="translate(0 15.252)" fill="none" stroke="#dcdddd" stroke-linecap="round" stroke-linejoin="round" stroke-width="3"/>
        <ellipse id="타원_347" data-name="타원 347" cx="1.907" cy="1.907" rx="1.907" ry="1.907" transform="translate(4.226 30.505)" fill="none" stroke="#dcdddd" stroke-linecap="round" stroke-linejoin="round" stroke-width="3"/>
      </g>
    </g>
    <g id="그룹_474" data-name="그룹 474" transform="translate(0 0)">
      <g id="그룹_467" data-name="그룹 467" transform="translate(0 0)">
        <line id="선_126" data-name="선 126" y2="23.605" transform="translate(13.131 24.303)" fill="none" stroke="#dcdddd" stroke-linecap="round" stroke-linejoin="round" stroke-width="3"/>
        <g id="그룹_466" data-name="그룹 466">
          <circle id="타원_348" data-name="타원 348" cx="3.031" cy="3.031" r="3.031" transform="translate(10.1 17.249)" fill="none" stroke="#dcdddd" stroke-linecap="round" stroke-linejoin="round" stroke-width="3"/>
          <path id="패스_1486" data-name="패스 1486" d="M386.337,703.989a2.273,2.273,0,0,1-1.607-3.881,9.058,9.058,0,0,1,12.807,0,2.273,2.273,0,1,1-3.216,3.214,4.51,4.51,0,0,0-6.376,0A2.27,2.27,0,0,1,386.337,703.989Z" transform="translate(-378.002 -688.884)" fill="none" stroke="#dcdddd" stroke-linecap="round" stroke-linejoin="round" stroke-width="3"/>
          <path id="패스_1487" data-name="패스 1487" d="M396.925,690.762a2.264,2.264,0,0,1-1.607-.666,13.081,13.081,0,0,0-18.5,0,2.273,2.273,0,1,1-3.214-3.216,17.631,17.631,0,0,1,24.931,0,2.273,2.273,0,0,1-1.608,3.88Z" transform="translate(-372.936 -681.719)" fill="none" stroke="#dcdddd" stroke-linecap="round" stroke-linejoin="round" stroke-width="3"/>
        </g>
      </g>
      <g id="그룹_473" data-name="그룹 473">
        <g id="그룹_469" data-name="그룹 469" transform="translate(24.736)">
          <path id="패스_1488" data-name="패스 1488" d="M472.245,682.772a3.6,3.6,0,0,1,5.087,0h0a3.6,3.6,0,0,1,0,5.087l-13.387,13.387a3.6,3.6,0,0,1-5.086,0h0a3.6,3.6,0,0,1,0-5.087Z" transform="translate(-436.31 -681.719)" fill="#fff" stroke="#3e3a39" stroke-linecap="round" stroke-linejoin="round" stroke-width="3"/>
          <g id="그룹_468" data-name="그룹 468" transform="translate(0 8.757)">
            <path id="패스_1489" data-name="패스 1489" d="M446.784,702.674a16.659,16.659,0,1,0,0,23.56A16.659,16.659,0,0,0,446.784,702.674Z" transform="translate(-418.345 -697.795)" fill="#d7ff36" stroke="#3e3a39" stroke-linecap="round" stroke-linejoin="round" stroke-width="3"/>
            <path id="패스_1490" data-name="패스 1490" d="M447.32,709.1a12.494,12.494,0,1,0,0,17.671A12.494,12.494,0,0,0,447.32,709.1Z" transform="translate(-421.826 -701.276)" fill="#fff"/>
            <path id="패스_1491" data-name="패스 1491" d="M447.32,726.771a12.494,12.494,0,1,0-17.669,0" transform="translate(-421.826 -701.276)" fill="none" stroke="#3e3a39" stroke-linecap="round" stroke-linejoin="round" stroke-width="3"/>
            <path id="패스_1492" data-name="패스 1492" d="M441.967,713.086a8.329,8.329,0,0,0-8.33,8.329" transform="translate(-425.307 -704.756)" fill="none" stroke="#dcdddd" stroke-linecap="round" stroke-linejoin="round" stroke-width="3"/>
          </g>
          <path id="패스_1493" data-name="패스 1493" d="M468.574,693.961a1.387,1.387,0,0,1,1.963,0l5.711,5.711a1.39,1.39,0,0,1,0,1.964h0a1.39,1.39,0,0,1-1.964,0l-5.711-5.713a1.388,1.388,0,0,1,0-1.963Z" transform="translate(-441.028 -687.107)" fill="#ffff52" stroke="#3e3a39" stroke-linecap="round" stroke-linejoin="round" stroke-width="3"/>
        </g>
        <g id="그룹_472" data-name="그룹 472" transform="translate(0 24.653)">
          <path id="패스_1494" data-name="패스 1494" d="M394.343,787.758a2.619,2.619,0,0,1-2.619,2.618h0a2.619,2.619,0,0,1-2.618-2.618V770.38a2.619,2.619,0,0,1,2.618-2.618h0a2.619,2.619,0,0,1,2.619,2.618Z" transform="translate(-380.297 -745.544)" fill="#ffff52" stroke="#3e3a39" stroke-linecap="round" stroke-linejoin="round" stroke-width="3"/>
          <g id="그룹_471" data-name="그룹 471">
            <path id="패스_1495" data-name="패스 1495" d="M446.23,761.818a4.585,4.585,0,1,0-4.585,4.584A4.584,4.584,0,0,0,446.23,761.818Z" transform="translate(-402.13 -740.751)" fill="#75d8ff" stroke="#3e3a39" stroke-linecap="round" stroke-linejoin="round" stroke-width="3"/>
            <g id="그룹_470" data-name="그룹 470">
              <path id="패스_1496" data-name="패스 1496" d="M406.362,738.049l-18.568,7.142v9.284l18.568,7.141s6.189,3.1,9.046,7.141V730.908C412.551,734.954,406.362,738.049,406.362,738.049Z" transform="translate(-379.7 -728.766)" fill="#fff" stroke="#3e3a39" stroke-linecap="round" stroke-linejoin="round" stroke-width="3"/>
              <path id="패스_1497" data-name="패스 1497" d="M421.88,761.616s6.189,3.1,9.046,7.141V730.908c-2.857,4.046-9.046,7.141-9.046,7.141" transform="translate(-395.218 -728.766)" fill="#dcdddd" stroke="#3e3a39" stroke-linecap="round" stroke-linejoin="round" stroke-width="3"/>
              <path id="패스_1498" data-name="패스 1498" d="M378.173,756.035a5.237,5.237,0,1,0,0,10.475h2.857V756.035Z" transform="translate(-372.935 -740.205)" fill="#0b703e" stroke="#3e3a39" stroke-linecap="round" stroke-linejoin="round" stroke-width="3"/>
              <path id="패스_1499" data-name="패스 1499" d="M442.057,767.324a1.785,1.785,0,0,1-1.785,1.785h0a1.785,1.785,0,0,1-1.786-1.785V728.76a1.785,1.785,0,0,1,1.786-1.785h0a1.785,1.785,0,0,1,1.785,1.785Z" transform="translate(-402.778 -726.975)" fill="#fff" stroke="#3e3a39" stroke-linecap="round" stroke-linejoin="round" stroke-width="3"/>
            </g>
          </g>
        </g>
      </g>
    </g>
  </g>
</svg>
