<svg xmlns="http://www.w3.org/2000/svg" xmlns:xlink="http://www.w3.org/1999/xlink" width="1160" height="465" viewBox="0 0 1160 465">
  <defs>
    <style>
      .cls-1 {
        fill: #f4f4f4;
      }

      .cls-2 {
        fill: #bbb;
      }

      .cls-3 {
        fill: #36c;
      }

      .cls-4 {
        fill: #fff;
      }

      .cls-5 {
        fill: #424a64;
      }

      .cls-6 {
        fill: #555;
      }

      .cls-7 {
        filter: url(#패스_1546);
      }

      .cls-8 {
        filter: url(#패스_1545);
      }

      .cls-9 {
        filter: url(#패스_1543);
      }

      .cls-10 {
        filter: url(#사각형_210);
      }

      .cls-11 {
        filter: url(#사각형_208);
      }

      .cls-12 {
        filter: url(#사각형_209);
      }

      .cls-13 {
        filter: url(#사각형_207);
      }

      .cls-14 {
        filter: url(#사각형_206-2);
      }

      .cls-15 {
        filter: url(#사각형_206);
      }
    </style>
    <filter id="사각형_206" x="423" y="35" width="318" height="100" filterUnits="userSpaceOnUse">
      <feOffset dy="2" input="SourceAlpha"/>
      <feGaussianBlur stdDeviation="3" result="blur"/>
      <feFlood flood-color="#fff"/>
      <feComposite operator="in" in2="blur"/>
      <feComposite in="SourceGraphic"/>
    </filter>
    <filter id="사각형_206-2" x="423" y="35" width="318" height="100" filterUnits="userSpaceOnUse">
      <feOffset dy="7" input="SourceAlpha"/>
      <feGaussianBlur stdDeviation="5" result="blur-2"/>
      <feFlood flood-opacity="0.161" result="color"/>
      <feComposite operator="out" in="SourceGraphic" in2="blur-2"/>
      <feComposite operator="in" in="color"/>
      <feComposite operator="in" in2="SourceGraphic"/>
    </filter>
    <filter id="사각형_207" x="32" y="180" width="507" height="74" filterUnits="userSpaceOnUse">
      <feOffset dy="3" input="SourceAlpha"/>
      <feGaussianBlur stdDeviation="3" result="blur-3"/>
      <feFlood flood-opacity="0.161" result="color-2"/>
      <feComposite operator="out" in="SourceGraphic" in2="blur-3"/>
      <feComposite operator="in" in="color-2"/>
      <feComposite operator="in" in2="SourceGraphic"/>
    </filter>
    <filter id="사각형_209" x="8" y="242" width="555" height="218" filterUnits="userSpaceOnUse">
      <feOffset dy="5" input="SourceAlpha"/>
      <feGaussianBlur stdDeviation="8" result="blur-4"/>
      <feFlood flood-opacity="0.161"/>
      <feComposite operator="in" in2="blur-4"/>
      <feComposite in="SourceGraphic"/>
    </filter>
    <filter id="사각형_208" x="625" y="180" width="507" height="74" filterUnits="userSpaceOnUse">
      <feOffset dy="3" input="SourceAlpha"/>
      <feGaussianBlur stdDeviation="3" result="blur-5"/>
      <feFlood flood-opacity="0.161" result="color-3"/>
      <feComposite operator="out" in="SourceGraphic" in2="blur-5"/>
      <feComposite operator="in" in="color-3"/>
      <feComposite operator="in" in2="SourceGraphic"/>
    </filter>
    <filter id="사각형_210" x="601" y="242" width="555" height="218" filterUnits="userSpaceOnUse">
      <feOffset dy="5" input="SourceAlpha"/>
      <feGaussianBlur stdDeviation="8" result="blur-6"/>
      <feFlood flood-opacity="0.161"/>
      <feComposite operator="in" in2="blur-6"/>
      <feComposite in="SourceGraphic"/>
    </filter>
    <filter id="패스_1543" x="527.134" y="62.636" width="109.732" height="48.736" filterUnits="userSpaceOnUse">
      <feOffset dy="3" input="SourceAlpha"/>
      <feGaussianBlur stdDeviation="3" result="blur-7"/>
      <feFlood flood-opacity="0.161"/>
      <feComposite operator="in" in2="blur-7"/>
      <feComposite in="SourceGraphic"/>
    </filter>
    <filter id="패스_1545" x="176.8" y="200.872" width="218.928" height="40.992" filterUnits="userSpaceOnUse">
      <feOffset dy="3" input="SourceAlpha"/>
      <feGaussianBlur stdDeviation="3" result="blur-8"/>
      <feFlood flood-opacity="0.161"/>
      <feComposite operator="in" in2="blur-8"/>
      <feComposite in="SourceGraphic"/>
    </filter>
    <filter id="패스_1546" x="791.544" y="201.112" width="175.68" height="40.752" filterUnits="userSpaceOnUse">
      <feOffset dy="3" input="SourceAlpha"/>
      <feGaussianBlur stdDeviation="3" result="blur-9"/>
      <feFlood flood-opacity="0.161"/>
      <feComposite operator="in" in2="blur-9"/>
      <feComposite in="SourceGraphic"/>
    </filter>
  </defs>
  <g id="그룹_490" data-name="그룹 490" transform="translate(-198 -476)">
    <rect id="사각형_211" data-name="사각형 211" class="cls-1" width="1160" height="465" transform="translate(198 476)"/>
    <path id="선_128" data-name="선 128" class="cls-2" d="M1.5,35h-3V30h3Zm0-10h-3V20h3Zm0-10h-3V10h3Zm0-10h-3V0h3Z" transform="translate(484 629)"/>
    <path id="선_130" data-name="선 130" class="cls-2" d="M1.5,35h-3V30h3Zm0-10h-3V20h3Zm0-10h-3V10h3Zm0-10h-3V0h3Z" transform="translate(781 588)"/>
    <path id="선_129" data-name="선 129" class="cls-2" d="M1.5,35h-3V30h3Zm0-10h-3V20h3Zm0-10h-3V10h3Zm0-10h-3V0h3Z" transform="translate(1077 629)"/>
    <g data-type="innerShadowGroup">
      <g class="cls-15" transform="matrix(1, 0, 0, 1, 198, 476)">
        <rect id="사각형_206-3" data-name="사각형 206" class="cls-3" width="300" height="82" rx="41" transform="translate(432 42)"/>
      </g>
      <g class="cls-14" transform="matrix(1, 0, 0, 1, 198, 476)">
        <rect id="사각형_206-4" data-name="사각형 206" class="cls-4" width="300" height="82" rx="41" transform="translate(432 42)"/>
      </g>
    </g>
    <g data-type="innerShadowGroup">
      <rect id="사각형_207-2" data-name="사각형 207" class="cls-5" width="507" height="74" rx="14" transform="translate(230 656)"/>
      <g class="cls-13" transform="matrix(1, 0, 0, 1, 198, 476)">
        <rect id="사각형_207-3" data-name="사각형 207" class="cls-4" width="507" height="74" rx="14" transform="translate(32 180)"/>
      </g>
    </g>
    <g class="cls-12" transform="matrix(1, 0, 0, 1, 198, 476)">
      <rect id="사각형_209-2" data-name="사각형 209" class="cls-4" width="507" height="170" rx="14" transform="translate(32 261)"/>
    </g>
    <g data-type="innerShadowGroup">
      <rect id="사각형_208-2" data-name="사각형 208" class="cls-5" width="507" height="74" rx="14" transform="translate(823 656)"/>
      <g class="cls-11" transform="matrix(1, 0, 0, 1, 198, 476)">
        <rect id="사각형_208-3" data-name="사각형 208" class="cls-4" width="507" height="74" rx="14" transform="translate(625 180)"/>
      </g>
    </g>
    <g class="cls-10" transform="matrix(1, 0, 0, 1, 198, 476)">
      <rect id="사각형_210-2" data-name="사각형 210" class="cls-4" width="507" height="170" rx="14" transform="translate(625 261)"/>
    </g>
    <g class="cls-9" transform="matrix(1, 0, 0, 1, 198, 476)">
      <path id="패스_1543-2" data-name="패스 1543" class="cls-4" d="M-24-3.162H-27.37v-12.07h-3.842v7.956h-3.366V-21.93h-.816a2.127,2.127,0,0,0-1.462.408,3.133,3.133,0,0,0-.748,1.258L-42.126-7.276h-3.74l4.828-13.77a11.336,11.336,0,0,1,.731-1.751,4.678,4.678,0,0,1,.918-1.224,3.279,3.279,0,0,1,1.309-.731,6.748,6.748,0,0,1,1.938-.238h4.93v6.63h3.842v-7H-24Zm6.664,8.534H-41.446V-5.44h3.4V2.312H-17.34Zm-.2-7.854h-3.4V-25.364h3.4ZM5.61,2.38H-12.954V-22.95a2.152,2.152,0,0,1,.476-1.564,2.152,2.152,0,0,1,1.564-.476h13.5V-22H-9.554v8.432H1.9v2.924H-9.554V-.612H5.61Zm6.8,2.992H9.01V-10.54H3.6v-3.128H9.01v-11.7h3.4Zm12.036,0a6.775,6.775,0,0,1-4.794-1.581,5.8,5.8,0,0,1-1.7-4.471,5.8,5.8,0,0,1,1.7-4.471,6.775,6.775,0,0,1,4.794-1.581H35.972a6.775,6.775,0,0,1,4.794,1.581,5.8,5.8,0,0,1,1.7,4.471,5.8,5.8,0,0,1-1.7,4.471,6.775,6.775,0,0,1-4.794,1.581ZM34.884-8.84h-3.57L27.472-21.216a2.041,2.041,0,0,0-.255-.561.609.609,0,0,0-.493-.153H24.378a.572.572,0,0,0-.493.17,2.48,2.48,0,0,0-.255.544L19.584-8.84h-3.57L20.3-21.93H16.286v-3.06h18.9v3.06H30.838ZM35.53,2.312A3.73,3.73,0,0,0,38.2,1.479,2.86,2.86,0,0,0,39.066-.68,2.86,2.86,0,0,0,38.2-2.839a3.73,3.73,0,0,0-2.669-.833H24.888a3.73,3.73,0,0,0-2.669.833A2.86,2.86,0,0,0,21.352-.68a2.86,2.86,0,0,0,.867,2.159,3.73,3.73,0,0,0,2.669.833ZM41.854-7.48h-3.4V-25.364h3.4v6.222h4.012v3.128H41.854Z" transform="translate(582 94)"/>
    </g>
    <g class="cls-8" transform="matrix(1, 0, 0, 1, 198, 476)">
      <path id="패스_1545-2" data-name="패스 1545" class="cls-4" d="M-79.992,2.352H-100.2V.192h20.208ZM-80.52-4.08h-2.64l-3-10.416a1.64,1.64,0,0,0-.42-.708,1.222,1.222,0,0,0-.9-.3h-5.232a1.222,1.222,0,0,0-.9.3,1.64,1.64,0,0,0-.42.708l-3,10.416h-2.64l3.408-11.3A3.426,3.426,0,0,1-95.2-17.1a3.457,3.457,0,0,1,2.172-.564h5.856A3.457,3.457,0,0,1-85-17.1a3.426,3.426,0,0,1,1.068,1.716ZM-66.048.12a1.871,1.871,0,0,1-.432,1.368,1.871,1.871,0,0,1-1.368.432H-77.976V-16.2a1.519,1.519,0,0,1,.336-1.1,1.519,1.519,0,0,1,1.1-.336h10.488Zm-2.4-.36V-15.48h-7.128V-.24Zm7.9,4.032h-2.4V-17.9h2.4V-9.84h2.832v2.208h-2.832ZM-36.5,2.352H-56.712V.192H-36.5ZM-37.728-4.32H-55.2V-16.464a1.519,1.519,0,0,1,.336-1.1,1.519,1.519,0,0,1,1.1-.336h15.744v2.16H-52.8v3.5h14.616v2.16H-52.8v3.6h15.072ZM-20.3-4.488a4.815,4.815,0,0,1,3.384,1.1,3.966,3.966,0,0,1,1.2,3.072,3.966,3.966,0,0,1-1.2,3.072,4.815,4.815,0,0,1-3.384,1.1h-9.12a4.815,4.815,0,0,1-3.384-1.1,3.966,3.966,0,0,1-1.2-3.072,3.966,3.966,0,0,1,1.2-3.072,4.815,4.815,0,0,1,3.384-1.1Zm5.544-1.8H-34.968v-2.16h7.632v-4.08h2.4v4.08H-14.76ZM-16.7-9.84h-2.4l.456-5.184q.072-.672-.672-.672H-33.456v-2.16h16.2a1.21,1.21,0,0,1,.948.36,1.226,1.226,0,0,1,.276.96ZM-20.616,1.7a2.706,2.706,0,0,0,1.884-.564A1.885,1.885,0,0,0-18.12-.312a1.885,1.885,0,0,0-.612-1.452,2.706,2.706,0,0,0-1.884-.564h-8.5A2.706,2.706,0,0,0-31-1.764a1.885,1.885,0,0,0-.612,1.452A1.885,1.885,0,0,0-31,1.14a2.706,2.706,0,0,0,1.884.564ZM-7.608,3.792a4.783,4.783,0,0,1-3.384-1.116,4.1,4.1,0,0,1-1.2-3.156,4.1,4.1,0,0,1,1.2-3.156A4.783,4.783,0,0,1-7.608-4.752H.528A4.783,4.783,0,0,1,3.912-3.636,4.1,4.1,0,0,1,5.112-.48a4.1,4.1,0,0,1-1.2,3.156A4.783,4.783,0,0,1,.528,3.792ZM-.24-6.24H-2.76l-2.712-8.736a1.441,1.441,0,0,0-.18-.4A.43.43,0,0,0-6-15.48H-7.656A.4.4,0,0,0-8-15.36a1.75,1.75,0,0,0-.18.384L-11.04-6.24h-2.52l3.024-9.24h-2.832v-2.16H-.024v2.16H-3.1ZM.216,1.632A2.633,2.633,0,0,0,2.1,1.044,2.019,2.019,0,0,0,2.712-.48,2.019,2.019,0,0,0,2.1-2,2.633,2.633,0,0,0,.216-2.592H-7.3A2.633,2.633,0,0,0-9.18-2,2.019,2.019,0,0,0-9.792-.48,2.019,2.019,0,0,0-9.18,1.044,2.633,2.633,0,0,0-7.3,1.632ZM4.68-5.28H2.28V-17.9h2.4v4.392H7.512V-11.3H4.68ZM33.456-6.84a1.871,1.871,0,0,1-.432,1.368,1.871,1.871,0,0,1-1.368.432H16.272V-17.784h2.4v4.1H31.056v-4.1h2.4Zm-2.4-.36v-4.32H18.672V-7.2Zm3.912,9.552H14.76V.192h8.9V-3.6h2.4V.192h8.9ZM55.32,2.064a1.871,1.871,0,0,1-.432,1.368,1.871,1.871,0,0,1-1.368.432H37.9V-5.112h2.4v2.136H52.92V-5.112h2.4Zm-.552-12.24h-2.4l.456-4.848q.072-.672-.672-.672H38.016v-2.16h16.2a1.21,1.21,0,0,1,.948.36,1.226,1.226,0,0,1,.276.96Zm1.944,3.312H36.5v-2.16H56.712ZM52.92,1.7V-.864H40.3V1.7ZM72.792-4.464H58.584v-2.16H64.44v-1.3Q60-8.328,60-11.736v-.576a2.993,2.993,0,0,1,.384-1.512,2.621,2.621,0,0,1,1.056-1.032H58.776v-2.16H64.44v-2.112h2.4v2.112h5.736v2.16H69.912a2.166,2.166,0,0,1,1.032,1.02,3.41,3.41,0,0,1,.336,1.524v.576q0,3.408-4.44,3.816v1.3h5.952Zm3.6,8.256h-2.4V-.744H59.64V-2.9H76.392Zm0-7.848h-2.4V-17.9h2.4v5.232h2.832v2.208H76.392ZM68.88-12.6a2.409,2.409,0,0,0-.18-.936,1.978,1.978,0,0,0-.564-.756,2.711,2.711,0,0,0-1-.5,5.382,5.382,0,0,0-1.5-.18,5.382,5.382,0,0,0-1.5.18,2.711,2.711,0,0,0-1,.5,1.978,1.978,0,0,0-.564.756,2.409,2.409,0,0,0-.18.936v.384a2.163,2.163,0,0,0,.732,1.776,4.017,4.017,0,0,0,2.508.6,4.017,4.017,0,0,0,2.508-.6,2.163,2.163,0,0,0,.732-1.776ZM92.4-5.136H90V-15.48H87.648a1.691,1.691,0,0,0-1.1.288,2.248,2.248,0,0,0-.576.888L82.392-5.136H79.728l3.792-9.72a13.316,13.316,0,0,1,.528-1.224,2.939,2.939,0,0,1,.648-.876,2.429,2.429,0,0,1,.924-.516,4.638,4.638,0,0,1,1.356-.168H92.4Zm5.64,8.928H81.5V-3.84h2.4V1.632H98.04ZM97.9-1.752H95.5V-17.9h2.4v5.712h2.832v2.208H97.9Z" transform="translate(286 226)"/>
    </g>
    <path id="패스_1544" data-name="패스 1544" class="cls-6" d="M-80.408-1.387h-1.9V-14.174h1.9ZM-80.294,3H-93.575V-3.04h1.9V1.292h11.381Zm-4.655-7.068h-1.9v-8.189H-88.9a1.339,1.339,0,0,0-.874.228,1.779,1.779,0,0,0-.456.7l-2.831,7.258h-2.109l3-7.7a10.541,10.541,0,0,1,.418-.969,2.327,2.327,0,0,1,.513-.694,1.923,1.923,0,0,1,.731-.408,3.671,3.671,0,0,1,1.074-.133h4.484ZM-65.8,3h-1.9v-6.27h-4.674V3h-1.9v-6.27h-3.857v-1.71h16v1.71H-65.8Zm1.976-9.12h-1.9l.57-5.624q.057-.532-.532-.532H-76.931v-1.71h12.825a.958.958,0,0,1,.75.285.97.97,0,0,1,.218.76Zm23.845,2.85h-7.049V3h-1.9v-6.27h-7.049v-1.71h16Zm-1.691-2.85h-1.9l.57-5.624q.057-.532-.532-.532H-54.777v-1.71h12.825a.958.958,0,0,1,.75.285.97.97,0,0,1,.218.76Zm17.8,9.177h-1.9V-1.235H-37.658v-1.71h5.947V-4.674H-38.76v-1.71h16v1.71h-7.049v1.729h5.947Zm.171-10.374h-2.052l-2.66-3.515a2.879,2.879,0,0,0-.513-.627,1.119,1.119,0,0,0-.722-.19h-2.242a1.119,1.119,0,0,0-.722.19,2.879,2.879,0,0,0-.513.627l-2.66,3.515h-2.052l3.154-4.332h-2.888v-1.71h5.852v-1.786h1.9v1.786h5.852v1.71h-2.888Zm17.48-.551a1.481,1.481,0,0,1-.342,1.083,1.481,1.481,0,0,1-1.083.342h-8.208v-6.384a1.2,1.2,0,0,1,.266-.874,1.2,1.2,0,0,1,.874-.266h8.493ZM-1.045,3h-2.09L-6.479-1.083A2.748,2.748,0,0,0-6.973-1.6a1.205,1.205,0,0,0-.741-.19h-1.14A1.205,1.205,0,0,0-9.6-1.6a2.748,2.748,0,0,0-.494.513L-13.433,3h-2.09L-11.8-1.786h-3.249V-3.5h5.7V-5.263h1.9V-3.5h5.776v1.71H-4.788ZM-8.113-8.151v-4.1h-5.833v4.1ZM-1.672-5.32h-1.9v-8.854h1.9ZM21.546,1.862h-16V.152h5.947V-6.992h1.9V.152h8.151ZM19.855-3.42h-1.9l.57-8.322q.057-.532-.532-.532H6.745v-1.71H19.57a.958.958,0,0,1,.75.285.97.97,0,0,1,.219.76Zm17.8-.76h-13.7v-8.664a1.2,1.2,0,0,1,.266-.874,1.2,1.2,0,0,1,.874-.266H37.563v1.71h-11.7V-5.89h11.8Zm1.1,6.042h-16V.152h7.049V-3.04h1.9V.152H38.76ZM51.49,1.52H40.242V-.19h4.636V-2.28a3.982,3.982,0,0,1-2.622-1.273,4.124,4.124,0,0,1-.893-2.774V-8.3a4.288,4.288,0,0,1,.313-1.7,2.787,2.787,0,0,1,.9-1.168H40.394v-1.71h4.484v-2.071h1.9v2.071h4.541v1.71H49.134a2.364,2.364,0,0,1,.884,1.159,4.891,4.891,0,0,1,.276,1.71v1.976A4.124,4.124,0,0,1,49.4-3.553,3.982,3.982,0,0,1,46.778-2.28V-.19H51.49ZM54.34,3h-1.9V-14.174h1.9v6.1h2.242v1.748H54.34ZM48.393-8.626a2.968,2.968,0,0,0-.58-1.929,2.427,2.427,0,0,0-1.986-.713,2.427,2.427,0,0,0-1.986.713,2.968,2.968,0,0,0-.579,1.929v2.2a2.968,2.968,0,0,0,.579,1.929,2.427,2.427,0,0,0,1.986.712,2.427,2.427,0,0,0,1.986-.712,2.968,2.968,0,0,0,.58-1.929ZM77.064,3h-1.9V-14.174h1.9ZM72.9,1.634h-2L68.761-11.571q-.114-.684-.589-.684h-.988q-.494,0-.608.684L64.334,1.634H62.339l2.375-13.889H62.548v-1.71H72.979v1.71H70.623Zm16.929-11A3.128,3.128,0,0,1,88.8-8.3a5.21,5.21,0,0,1-1.605.665,8.626,8.626,0,0,1-2.052.228,8.746,8.746,0,0,1-2.062-.228A5.083,5.083,0,0,1,81.472-8.3a3.216,3.216,0,0,1-1.035-1.073,2.873,2.873,0,0,1-.37-1.473,2.887,2.887,0,0,1,.37-1.463A3.186,3.186,0,0,1,81.472-13.4a5.083,5.083,0,0,1,1.605-.665,8.746,8.746,0,0,1,2.062-.228,8.626,8.626,0,0,1,2.052.228A5.21,5.21,0,0,1,88.8-13.4a3.156,3.156,0,0,1,1.045,1.083,2.887,2.887,0,0,1,.37,1.463A2.868,2.868,0,0,1,89.832-9.367ZM94.088-.152h-1.9V-1.957H87.951V-3.629h4.237V-14.174h1.9ZM94.2,3H80.541v-4.75h1.9v3.04H94.2ZM90.953-4.845H85.785v3h-1.9v-3H79.61v-1.71H90.953ZM87.419-9.519a1.388,1.388,0,0,0,.893-1.33,1.371,1.371,0,0,0-.883-1.32,5.488,5.488,0,0,0-2.289-.409,5.488,5.488,0,0,0-2.289.409,1.371,1.371,0,0,0-.883,1.32,1.371,1.371,0,0,0,.883,1.321,5.488,5.488,0,0,0,2.289.408A5.535,5.535,0,0,0,87.419-9.519ZM-66.861,27.44h-1.9V25.065h-3.382a3.847,3.847,0,0,1-1.644,1.406,5.793,5.793,0,0,1-2.479.494,6.106,6.106,0,0,1-1.957-.295,4.432,4.432,0,0,1-1.5-.836,3.689,3.689,0,0,1-.969-1.311,4.237,4.237,0,0,1-.342-1.738v-.893a4.237,4.237,0,0,1,.342-1.739,3.689,3.689,0,0,1,.969-1.311,4.432,4.432,0,0,1,1.5-.836,6.106,6.106,0,0,1,1.957-.295,5.842,5.842,0,0,1,2.461.485,3.831,3.831,0,0,1,1.643,1.378h3.4V17.826h1.9Zm0,7.562h-1.9V30.024H-80.123v-1.71h13.262ZM-73.4,21.987a2.367,2.367,0,0,0-.779-1.89,3.082,3.082,0,0,0-2.09-.675,3.082,3.082,0,0,0-2.09.675,2.367,2.367,0,0,0-.779,1.89v.7a2.367,2.367,0,0,0,.779,1.891,3.082,3.082,0,0,0,2.09.674,3.082,3.082,0,0,0,2.09-.674A2.367,2.367,0,0,0-73.4,22.69Zm4.636,1.33v-2h-2.774q.019.152.029.285t.009.285v.893q0,.152-.009.275t-.029.257Zm15.067,5.3a3.954,3.954,0,0,1,2.679.826,2.967,2.967,0,0,1,.95,2.365,2.967,2.967,0,0,1-.95,2.365A3.954,3.954,0,0,1-53.694,35h-6.441a3.954,3.954,0,0,1-2.679-.826,2.967,2.967,0,0,1-.95-2.365,2.967,2.967,0,0,1,.95-2.365,3.954,3.954,0,0,1,2.679-.826Zm.057-1.425H-64.2V21.759h7.543V19.707h-7.581V18.035h9.481v3.933a1.481,1.481,0,0,1-.342,1.083,1.481,1.481,0,0,1-1.083.342H-62.3v2.128h8.664Zm-.3,6.1a2.319,2.319,0,0,0,1.492-.4,1.329,1.329,0,0,0,.484-1.083,1.329,1.329,0,0,0-.484-1.083,2.318,2.318,0,0,0-1.492-.4h-5.947a2.318,2.318,0,0,0-1.491.4,1.329,1.329,0,0,0-.485,1.083,1.329,1.329,0,0,0,.485,1.083,2.318,2.318,0,0,0,1.491.4Zm3.534-5.282h-1.9V17.826h1.9v1.919h2.242v1.748h-2.242v2.28h2.242v1.748h-2.242Zm7.3,6.992a3.786,3.786,0,0,1-2.679-.883,3.244,3.244,0,0,1-.95-2.5,3.244,3.244,0,0,1,.95-2.5,3.786,3.786,0,0,1,2.679-.884h6.441a3.786,3.786,0,0,1,2.679.884,3.244,3.244,0,0,1,.95,2.5,3.244,3.244,0,0,1-.95,2.5A3.786,3.786,0,0,1-36.67,35Zm6.194-1.71a2.084,2.084,0,0,0,1.492-.465,1.6,1.6,0,0,0,.484-1.206,1.6,1.6,0,0,0-.484-1.207,2.084,2.084,0,0,0-1.492-.465h-5.947a2.084,2.084,0,0,0-1.492.465,1.6,1.6,0,0,0-.485,1.207,1.6,1.6,0,0,0,.485,1.206,2.084,2.084,0,0,0,1.492.465Zm-2.3-6.327h-1.9l1.064-6.783a.463.463,0,0,0-.038-.351.474.474,0,0,0-.342-.086h-6.745v-1.71h8.512a.808.808,0,0,1,.665.237.82.82,0,0,1,.114.674Zm5.833.855h-1.9V17.826h1.9V21.3h2.242v1.748h-2.242Zm14.744,5.7H-29.887V31.81h4.636V29.72a3.982,3.982,0,0,1-2.622-1.273,4.124,4.124,0,0,1-.893-2.774V23.7a4.288,4.288,0,0,1,.313-1.7,2.787,2.787,0,0,1,.9-1.168h-2.185v-1.71h4.484V17.047h1.9v2.071h4.541v1.71H-21a2.364,2.364,0,0,1,.884,1.159,4.891,4.891,0,0,1,.275,1.71v1.976a4.124,4.124,0,0,1-.893,2.774,3.982,3.982,0,0,1-2.622,1.273v2.09h4.712ZM-15.789,35h-1.9V17.826h1.9v6.1h2.242v1.748h-2.242Zm-5.947-11.628a2.968,2.968,0,0,0-.58-1.929,2.427,2.427,0,0,0-1.986-.713,2.427,2.427,0,0,0-1.985.713,2.968,2.968,0,0,0-.58,1.929v2.2a2.968,2.968,0,0,0,.58,1.929,2.427,2.427,0,0,0,1.985.712,2.427,2.427,0,0,0,1.986-.712,2.968,2.968,0,0,0,.58-1.929ZM.532,28.181h-1.9l.513-3.857H-7.144v-1.71H-.627L-.3,20.182a.463.463,0,0,0-.038-.351.474.474,0,0,0-.342-.086H-7.239v-1.71H1.083a.778.778,0,0,1,.656.237.9.9,0,0,1,.123.674ZM7.049,35H-6.232V28.96h1.9v4.332H7.049Zm-.114-4.389h-1.9V23.754H2.071V22.006H5.035v-4.18h1.9ZM24.339,35H10.982V30H22.249V28.637H10.944v-1.71h13.2v3.61a.971.971,0,0,1-1.14,1.14H12.882v1.615H24.339Zm-.19-8.892h-1.9V22.443H19.228V25.73h-1.9V19.745H15.656a1.616,1.616,0,0,0-.5.066,1,1,0,0,0-.342.19,1.453,1.453,0,0,0-.257.294q-.114.171-.228.38L11.495,25.73H9.386l3-5.491q.285-.513.5-.921a2.918,2.918,0,0,1,.5-.694,1.92,1.92,0,0,1,.684-.437,2.989,2.989,0,0,1,1.045-.152h4.1v2.66h3.021V17.826h1.9Zm17.214,1.9h-1.9V17.826h1.9Zm-3.287.608a3.954,3.954,0,0,1,2.679.826,2.967,2.967,0,0,1,.95,2.365,2.967,2.967,0,0,1-.95,2.365A3.954,3.954,0,0,1,38.076,35H31.445a3.954,3.954,0,0,1-2.679-.826,2.967,2.967,0,0,1-.95-2.365,2.967,2.967,0,0,1,.95-2.365,3.954,3.954,0,0,1,2.679-.826Zm-.247,4.674a2.319,2.319,0,0,0,1.492-.4,1.453,1.453,0,0,0,0-2.166,2.318,2.318,0,0,0-1.492-.4H31.692a2.318,2.318,0,0,0-1.491.4,1.453,1.453,0,0,0,0,2.166,2.318,2.318,0,0,0,1.491.4Zm.114-6.1H27.189V19.175a.971.971,0,0,1,1.14-1.14h8.626v1.672H29.089v2.052h7.733v1.634H29.089v2.128h8.854ZM63.517,35h-1.9V17.826h1.9Zm-4.161-1.368H57.361l-2.147-13.2q-.114-.684-.589-.684h-.988q-.494,0-.608.684l-2.242,13.2H48.792l2.375-13.889H49v-1.71H59.432v1.71H57.076Zm16.929-11A3.128,3.128,0,0,1,75.249,23.7a5.21,5.21,0,0,1-1.605.665,8.626,8.626,0,0,1-2.052.228,8.746,8.746,0,0,1-2.062-.228,5.083,5.083,0,0,1-1.605-.665,3.216,3.216,0,0,1-1.035-1.073,3.093,3.093,0,0,1,0-2.936A3.186,3.186,0,0,1,67.925,18.6a5.083,5.083,0,0,1,1.605-.665,8.746,8.746,0,0,1,2.062-.228,8.626,8.626,0,0,1,2.052.228,5.21,5.21,0,0,1,1.605.665,3.156,3.156,0,0,1,1.045,1.083,3.077,3.077,0,0,1-.009,2.945Zm4.256,9.215h-1.9V30.043H74.4V28.371h4.237V17.826h1.9ZM80.655,35H66.994v-4.75h1.9v3.04H80.655Zm-3.249-7.847H72.238v3h-1.9v-3H66.063v-1.71H77.406Zm-3.534-4.674a1.388,1.388,0,0,0,.893-1.33,1.371,1.371,0,0,0-.884-1.32,6.62,6.62,0,0,0-4.579,0,1.429,1.429,0,0,0,0,2.641,6.667,6.667,0,0,0,4.569.009ZM-71.972,65.634h-1.9V51.745h-1.672a1.221,1.221,0,0,0-.855.237,1.414,1.414,0,0,0-.361.694l-3.23,12.958H-82l3.249-13.11a7.555,7.555,0,0,1,.313-1.007,2.644,2.644,0,0,1,.475-.788,1.96,1.96,0,0,1,.731-.513,2.905,2.905,0,0,1,1.1-.181h4.161ZM-67.621,67h-1.9V49.826h1.9V56.59h2.242v1.748h-2.242Zm17.974-8.17h-1.9V54.709H-54.3a4.2,4.2,0,0,1-.418,1.634,3.693,3.693,0,0,1-.979,1.226,4.343,4.343,0,0,1-1.472.77,6.309,6.309,0,0,1-1.881.266,6.106,6.106,0,0,1-1.957-.294,4.432,4.432,0,0,1-1.5-.836,3.689,3.689,0,0,1-.969-1.311,4.237,4.237,0,0,1-.342-1.738v-.532a4.237,4.237,0,0,1,.342-1.738,3.689,3.689,0,0,1,.969-1.311,4.432,4.432,0,0,1,1.5-.836,6.106,6.106,0,0,1,1.957-.295,5.351,5.351,0,0,1,3.125.865,3.671,3.671,0,0,1,1.549,2.384h2.831V49.826h1.9Zm0,6.745a1.481,1.481,0,0,1-.342,1.083A1.481,1.481,0,0,1-51.072,67H-62.814v-7.3h1.9V61.53h9.367V59.706h1.9Zm-6.536-11.59a2.367,2.367,0,0,0-.779-1.89,3.082,3.082,0,0,0-2.09-.675,3.082,3.082,0,0,0-2.09.675,2.367,2.367,0,0,0-.779,1.89v.342a2.367,2.367,0,0,0,.779,1.89,3.082,3.082,0,0,0,2.09.675,3.082,3.082,0,0,0,2.09-.675,2.367,2.367,0,0,0,.779-1.89Zm4.636,11.305V63.2h-9.367v2.09ZM-31.369,60.2h-16V58.49h7.049v-1.1h-1.539a5.131,5.131,0,0,1-3.163-.836,2.917,2.917,0,0,1-1.093-2.47,2.3,2.3,0,0,1,.295-1.111,1.611,1.611,0,0,1,.788-.75h-1.881V50.51h6.593V48.8h1.9v1.71h6.574v1.71h-1.881a1.6,1.6,0,0,1,.807.75,2.3,2.3,0,0,1,.295,1.111,2.917,2.917,0,0,1-1.092,2.47,5.131,5.131,0,0,1-3.164.836h-1.539v1.1h7.049Zm-4.389,1.045a4.267,4.267,0,0,1,2.679.741,2.581,2.581,0,0,1,.95,2.166,2.581,2.581,0,0,1-.95,2.166,4.267,4.267,0,0,1-2.679.741h-7.22a4.267,4.267,0,0,1-2.679-.741,2.581,2.581,0,0,1-.95-2.166,2.581,2.581,0,0,1,.95-2.166,4.267,4.267,0,0,1,2.679-.741Zm-1.368-5.415a3.139,3.139,0,0,0,1.985-.5,1.6,1.6,0,0,0,.618-1.3,1.633,1.633,0,0,0-.589-1.3,2.868,2.868,0,0,0-1.881-.5h-4.75a2.868,2.868,0,0,0-1.881.5,1.633,1.633,0,0,0-.589,1.3,1.6,1.6,0,0,0,.618,1.3,3.139,3.139,0,0,0,1.986.5Zm1.121,9.519a2.73,2.73,0,0,0,1.491-.323,1,1,0,0,0,.485-.874,1,1,0,0,0-.485-.874,2.73,2.73,0,0,0-1.491-.323h-6.726a2.73,2.73,0,0,0-1.492.323,1,1,0,0,0-.484.874,1,1,0,0,0,.484.874,2.73,2.73,0,0,0,1.492.323Zm20.653-6.764a1.481,1.481,0,0,1-.342,1.083,1.481,1.481,0,0,1-1.083.342H-28.956V49.921h1.9V53.17h9.8V49.921h1.9Zm-1.9-.285V54.88h-9.8V58.3Zm3.1,7.562h-16v-1.71H-23.1v-3h1.9v3h7.049ZM2.394,56.134a1.481,1.481,0,0,1-.342,1.083,1.481,1.481,0,0,1-1.083.342H-7.239V51.175a1.2,1.2,0,0,1,.266-.874,1.2,1.2,0,0,1,.874-.266H2.394ZM7.562,67H5.472L2.128,62.917a2.748,2.748,0,0,0-.494-.513,1.205,1.205,0,0,0-.741-.19H-.247a1.205,1.205,0,0,0-.741.19,2.748,2.748,0,0,0-.494.513L-4.826,67h-2.09l3.724-4.788H-6.441V60.5h5.7V58.737h1.9V60.5H6.935v1.71H3.819ZM.494,55.849v-4.1H-5.339v4.1ZM6.935,58.68h-1.9V49.826h1.9ZM25.764,67H23.883v-9.2h-4.1V56.058h4.1V49.826h1.881ZM22.325,65.33H14.763V49.94h1.881V63.62h5.681ZM29.564,67h-1.9V49.826h1.9Zm17.8-1.14h-16v-1.71h16ZM46.4,60.58H32.566V50.966a.971.971,0,0,1,1.14-1.14H46.17v1.71h-11.7V54.31H46.037v1.71H34.466v2.85H46.4Zm13.053-5.89a3.957,3.957,0,0,1-.371,1.739,3.747,3.747,0,0,1-1.045,1.311,4.891,4.891,0,0,1-1.605.836,6.778,6.778,0,0,1-2.052.294,6.871,6.871,0,0,1-2.062-.294,4.768,4.768,0,0,1-1.605-.836,3.794,3.794,0,0,1-1.035-1.311,3.957,3.957,0,0,1-.37-1.739v-.7a3.957,3.957,0,0,1,.37-1.739,3.794,3.794,0,0,1,1.035-1.311,4.768,4.768,0,0,1,1.605-.836,6.871,6.871,0,0,1,2.062-.295,6.778,6.778,0,0,1,2.052.295,4.891,4.891,0,0,1,1.605.836,3.747,3.747,0,0,1,1.045,1.311,3.957,3.957,0,0,1,.371,1.739ZM63.327,67h-1.9v-2.09H57.19V63.2h4.237V49.826h1.9Zm-5.776-12.92a2.242,2.242,0,0,0-.883-1.891,4.223,4.223,0,0,0-4.579,0,2.242,2.242,0,0,0-.883,1.891V54.6a2.242,2.242,0,0,0,.883,1.89,4.223,4.223,0,0,0,4.579,0,2.242,2.242,0,0,0,.883-1.89ZM55.024,67h-1.9V61.758H48.849v-1.71H60.192v1.71H55.024Zm15.789,0a3.786,3.786,0,0,1-2.679-.883,3.761,3.761,0,0,1,0-5,3.786,3.786,0,0,1,2.679-.883h6.631a3.786,3.786,0,0,1,2.679.883,3.761,3.761,0,0,1,0,5A3.786,3.786,0,0,1,77.444,67Zm3.895-7.847h-1.9l.494-3.306h-6.65v-1.71h6.916l.3-1.957a.463.463,0,0,0-.038-.352.474.474,0,0,0-.342-.085H66.557v-1.71h8.7a.808.808,0,0,1,.665.237.82.82,0,0,1,.114.674ZM77.2,65.292a2.084,2.084,0,0,0,1.492-.465,1.744,1.744,0,0,0,0-2.413,2.084,2.084,0,0,0-1.492-.466H71.06a2.084,2.084,0,0,0-1.492.466,1.744,1.744,0,0,0,0,2.413,2.084,2.084,0,0,0,1.492.465Zm3.534-5.662h-1.9v-9.8h1.9ZM-46.246,99h-1.9V81.826h1.9Zm-7.163-1.368h-1.9l2.2-13.452a.463.463,0,0,0-.038-.352.474.474,0,0,0-.342-.086H-60.42v-1.71h8.7a.808.808,0,0,1,.665.237.82.82,0,0,1,.114.674ZM-29.488,99H-42.769V93.625h1.9v3.667h11.381Zm-.114-3.914h-1.9V81.826h1.9v4.617h2.242v1.748H-29.6Zm-4.066-5.89h-1.9l.437-5.016a.561.561,0,0,0-.047-.352q-.067-.085-.333-.086h-7.543v-1.71h9.12a.749.749,0,0,1,.646.237.989.989,0,0,1,.133.674Zm1.216,2.964H-43.7v-1.71h3.439V86.709h1.9v3.743h5.909ZM-6.213,99h-1.9V89.768h-2.318V99h-1.881V81.826h1.881V88.02h2.318V81.826h1.9Zm-7.239-1.672h-7.562V81.94h1.881V95.62h5.681Zm19.627.551h-1.9V83.954H.209v-1.71H10.241v1.71H6.175Zm7.486,0h-1.9V84.714a2.183,2.183,0,0,1,2.47-2.47h7.334v1.71H14.611a.84.84,0,0,0-.95.95v3.8H20.8v1.71H13.661ZM39.387,81.769a3.6,3.6,0,1,1,0,7.182h-7.22A3.623,3.623,0,0,1,29.488,88a4.146,4.146,0,0,1,0-5.282,3.623,3.623,0,0,1,2.679-.95Zm-.247,5.472a1.941,1.941,0,0,0,1.491-.522,2.147,2.147,0,0,0,0-2.717,1.941,1.941,0,0,0-1.491-.523H32.414A1.941,1.941,0,0,0,30.922,84a2.147,2.147,0,0,0,0,2.717,1.941,1.941,0,0,0,1.491.522Zm4.636,4.788H37.107v3.629h-1.9V92.029H27.778v-1.71h16Zm-1.1,7.03H29.07V93.72h1.9v3.629h11.7ZM59.926,91.63h-1.9V89.065H54.644A3.847,3.847,0,0,1,53,90.471a5.793,5.793,0,0,1-2.479.494,6.106,6.106,0,0,1-1.957-.294,4.432,4.432,0,0,1-1.5-.836,3.689,3.689,0,0,1-.969-1.311,4.237,4.237,0,0,1-.342-1.738v-.893a4.237,4.237,0,0,1,.342-1.739,3.689,3.689,0,0,1,.969-1.311,4.432,4.432,0,0,1,1.5-.836,6.106,6.106,0,0,1,1.957-.295,5.841,5.841,0,0,1,2.46.485,3.831,3.831,0,0,1,1.644,1.377h3.4V81.826h1.9ZM50.008,99a3.786,3.786,0,0,1-2.679-.883,3.761,3.761,0,0,1,0-5,3.786,3.786,0,0,1,2.679-.883h6.631a3.786,3.786,0,0,1,2.679.883,3.761,3.761,0,0,1,0,5A3.786,3.786,0,0,1,56.639,99Zm6.384-1.71a2.084,2.084,0,0,0,1.492-.465,1.744,1.744,0,0,0,0-2.413,2.084,2.084,0,0,0-1.492-.465H50.255a2.084,2.084,0,0,0-1.491.465,1.744,1.744,0,0,0,0,2.413,2.084,2.084,0,0,0,1.491.465Zm-3-11.305a2.367,2.367,0,0,0-.779-1.891,3.575,3.575,0,0,0-4.18,0,2.367,2.367,0,0,0-.779,1.891v.7a2.367,2.367,0,0,0,.779,1.89,3.575,3.575,0,0,0,4.18,0,2.367,2.367,0,0,0,.779-1.89Zm4.636,1.33v-2H55.252q.019.152.028.285t.01.285v.893q0,.152-.01.275t-.028.257Z" transform="translate(484 777)"/>
    <path id="패스_1547" data-name="패스 1547" class="cls-6" d="M-121.41,1.33h-7.752V-12.825a1.2,1.2,0,0,1,.266-.874,1.2,1.2,0,0,1,.874-.266h6.042v1.71h-5.3V-.38h5.871ZM-118.161,3h-1.881V-5.909h-4.1V-7.657h4.1v-6.517h1.881Zm3.8,0h-1.9V-14.174h1.9Zm16.739,0h-1.9V-14.174h1.9Zm-4.256-5.282a4.252,4.252,0,0,1-.352,1.767,3.669,3.669,0,0,1-1,1.321,4.59,4.59,0,0,1-1.558.836,6.661,6.661,0,0,1-2.052.294,6.661,6.661,0,0,1-2.052-.294,4.59,4.59,0,0,1-1.558-.836,3.668,3.668,0,0,1-1-1.321A4.252,4.252,0,0,1-111.8-2.28v-7.7a4.252,4.252,0,0,1,.351-1.767,3.668,3.668,0,0,1,1-1.321,4.59,4.59,0,0,1,1.558-.836,6.661,6.661,0,0,1,2.052-.295,6.661,6.661,0,0,1,2.052.295,4.59,4.59,0,0,1,1.558.836,3.669,3.669,0,0,1,1,1.321,4.252,4.252,0,0,1,.352,1.767Zm-8.018-.551a3.365,3.365,0,0,0,.684,2.271,3.018,3.018,0,0,0,2.375.789,3.018,3.018,0,0,0,2.375-.789,3.365,3.365,0,0,0,.684-2.271V-9.424a3.365,3.365,0,0,0-.684-2.271,3.018,3.018,0,0,0-2.375-.788,3.018,3.018,0,0,0-2.375.788,3.365,3.365,0,0,0-.684,2.271ZM-84.208,1.33H-94.582V-12.825a1.2,1.2,0,0,1,.266-.874,1.2,1.2,0,0,1,.874-.266H-85.9v1.672h-6.783v4.712h6.4v1.634h-6.4V-.342h8.474ZM-80.408,3h-1.9V-5.89h-3.021V-7.638h3.021v-6.536h1.9Zm18.734-7.714H-72.922v-1.71h4.636V-7.543a5.02,5.02,0,0,1-2.622-.8A2.188,2.188,0,0,1-71.8-10.2a1.988,1.988,0,0,1,.247-.979,1.607,1.607,0,0,1,.7-.674H-72.77v-1.71h4.484v-1.577h1.9v1.577h4.541v1.71h-1.919a1.3,1.3,0,0,1,.684.665,2.343,2.343,0,0,1,.209.988,2.188,2.188,0,0,1-.893,1.862,5.02,5.02,0,0,1-2.622.8v1.121h4.712ZM-58.634,3H-71.991V-1.254h11.267v-.874H-72.029v-1.71h13.205V-.722a1.2,1.2,0,0,1-.266.874,1.2,1.2,0,0,1-.874.266H-70.091v.874h11.457Zm-.19-7.714h-1.9v-9.462h1.9v3.249h2.242v1.748h-2.242Zm-6.536-4.75a1.212,1.212,0,0,0,.589-1.045,1.217,1.217,0,0,0-.579-1.045,3.655,3.655,0,0,0-1.986-.4,3.655,3.655,0,0,0-1.985.4,1.217,1.217,0,0,0-.58,1.045,1.217,1.217,0,0,0,.58,1.045,3.655,3.655,0,0,0,1.985.4A3.6,3.6,0,0,0-65.36-9.462Zm25.384,5.206h-16v-1.71h3.895V-7.714a3.5,3.5,0,0,1-2.308-.95,3.127,3.127,0,0,1-.826-2.3,3.073,3.073,0,0,1,.95-2.422,3.9,3.9,0,0,1,2.679-.845h7.22a3.839,3.839,0,0,1,2.679.864,3.085,3.085,0,0,1,.95,2.4,3.108,3.108,0,0,1-.826,2.271,3.548,3.548,0,0,1-2.309.978v1.748h3.9Zm-4.389,1.045a3.985,3.985,0,0,1,2.679.817,2.891,2.891,0,0,1,.95,2.318,2.891,2.891,0,0,1-.95,2.318,3.985,3.985,0,0,1-2.679.817h-7.22a3.985,3.985,0,0,1-2.679-.817,2.891,2.891,0,0,1-.95-2.318,2.891,2.891,0,0,1,.95-2.318,3.985,3.985,0,0,1,2.679-.817Zm-.247-6.194a2.242,2.242,0,0,0,1.492-.418,1.427,1.427,0,0,0,.484-1.14,1.427,1.427,0,0,0-.484-1.14,2.242,2.242,0,0,0-1.492-.418h-6.726a2.242,2.242,0,0,0-1.492.418,1.427,1.427,0,0,0-.484,1.14,1.427,1.427,0,0,0,.484,1.14,2.242,2.242,0,0,0,1.492.418Zm0,10.754A2.36,2.36,0,0,0-43.121.96a1.262,1.262,0,0,0,.484-1.036,1.262,1.262,0,0,0-.484-1.036,2.36,2.36,0,0,0-1.492-.39h-6.726a2.36,2.36,0,0,0-1.492.39,1.262,1.262,0,0,0-.484,1.036A1.262,1.262,0,0,0-52.83.96a2.36,2.36,0,0,0,1.492.39Zm-1.159-7.315V-7.7h-4.408v1.729Zm23.56,2.413a3.812,3.812,0,0,1,2.679.874,3.14,3.14,0,0,1,.95,2.432,3.14,3.14,0,0,1-.95,2.432,3.812,3.812,0,0,1-2.679.874h-7.22a3.812,3.812,0,0,1-2.679-.874,3.14,3.14,0,0,1-.95-2.432,3.14,3.14,0,0,1,.95-2.432,3.812,3.812,0,0,1,2.679-.874Zm4.389-1.425h-16v-1.71h6.042v-3.23h1.9v3.23h8.056ZM-19.361-7.79h-1.9l.361-4.1q.057-.532-.532-.532H-32.623v-1.71H-19.8a.958.958,0,0,1,.75.285.97.97,0,0,1,.219.76Zm-3.1,9.139A2.143,2.143,0,0,0-20.967.9a1.493,1.493,0,0,0,.484-1.15A1.493,1.493,0,0,0-20.967-1.4a2.143,2.143,0,0,0-1.491-.447h-6.726a2.143,2.143,0,0,0-1.491.447A1.493,1.493,0,0,0-31.16-.247,1.493,1.493,0,0,0-30.676.9a2.143,2.143,0,0,0,1.491.447Zm20.748.285a1.481,1.481,0,0,1-.342,1.083,1.481,1.481,0,0,1-1.083.342H-15.5V-4.047h1.9v1.691H-3.61V-4.047h1.9Zm-.437-9.69h-1.9l.361-3.838q.057-.532-.532-.532H-15.409v-1.71H-2.584a.958.958,0,0,1,.75.285.97.97,0,0,1,.219.76ZM-.608-5.434h-16v-1.71h16Zm-3,6.783V-.684H-13.6V1.349ZM15.352,3h-1.9V-14.174h1.9ZM8.189,1.634h-1.9l2.2-13.452a.463.463,0,0,0-.038-.351.474.474,0,0,0-.342-.086H1.178v-1.71h8.7a.808.808,0,0,1,.665.237.82.82,0,0,1,.114.675ZM32.908,3.059H18.924V-1.482H30.818v-1.14H18.886v-1.71h5.985v-1.52H17.822v-1.71h16v1.71H26.771v1.52h5.947V-.95a1.2,1.2,0,0,1-.266.874,1.2,1.2,0,0,1-.874.266H20.824V1.349H32.908ZM33.1-8.379H31.065l-2-3.439a1.262,1.262,0,0,0-.38-.446,1.145,1.145,0,0,0-.665-.162H23.617a1.145,1.145,0,0,0-.665.162,1.262,1.262,0,0,0-.38.446l-2,3.439H18.544l2.318-4.047q.228-.4.456-.722a2.469,2.469,0,0,1,.513-.542,2.049,2.049,0,0,1,.665-.332,3.279,3.279,0,0,1,.931-.114h4.788a3.3,3.3,0,0,1,.921.114,2.036,2.036,0,0,1,.674.332,2.565,2.565,0,0,1,.513.532,6.71,6.71,0,0,1,.456.732ZM55.974,1.862h-16V.152h5.947V-6.992h1.9V.152h8.151ZM54.283-3.42h-1.9l.57-8.322q.057-.532-.532-.532H41.173v-1.71H54a.958.958,0,0,1,.75.285.97.97,0,0,1,.218.76Zm17.8-.76h-13.7v-8.664a1.2,1.2,0,0,1,.266-.874,1.2,1.2,0,0,1,.874-.266H71.991v1.71h-11.7V-5.89h11.8Zm1.1,6.042h-16V.152h7.049V-3.04h1.9V.152h7.049Zm12.73-.342H74.67V-.19h4.636V-2.28a3.982,3.982,0,0,1-2.622-1.273,4.124,4.124,0,0,1-.893-2.774V-8.3A4.288,4.288,0,0,1,76.1-10a2.787,2.787,0,0,1,.9-1.168H74.822v-1.71h4.484v-2.071h1.9v2.071h4.541v1.71H83.562a2.364,2.364,0,0,1,.883,1.159,4.891,4.891,0,0,1,.276,1.71v1.976a4.124,4.124,0,0,1-.893,2.774A3.982,3.982,0,0,1,81.206-2.28V-.19h4.712ZM88.768,3h-1.9V-14.174h1.9v6.1H91.01v1.748H88.768ZM82.821-8.626a2.968,2.968,0,0,0-.579-1.929,2.427,2.427,0,0,0-1.986-.713,2.427,2.427,0,0,0-1.985.713,2.968,2.968,0,0,0-.58,1.929v2.2a2.968,2.968,0,0,0,.58,1.929,2.427,2.427,0,0,0,1.985.712,2.427,2.427,0,0,0,1.986-.712,2.968,2.968,0,0,0,.579-1.929ZM111.492,3h-1.9V-14.174h1.9Zm-4.161-1.368h-1.995l-2.147-13.205q-.114-.684-.589-.684h-.988q-.494,0-.608.684L98.762,1.634H96.767l2.375-13.889H96.976v-1.71h10.431v1.71h-2.356Zm16.929-11A3.128,3.128,0,0,1,123.225-8.3a5.21,5.21,0,0,1-1.605.665,8.626,8.626,0,0,1-2.052.228,8.746,8.746,0,0,1-2.062-.228A5.083,5.083,0,0,1,115.9-8.3a3.216,3.216,0,0,1-1.035-1.073,2.873,2.873,0,0,1-.37-1.473,2.887,2.887,0,0,1,.37-1.463A3.186,3.186,0,0,1,115.9-13.4a5.083,5.083,0,0,1,1.605-.665,8.746,8.746,0,0,1,2.062-.228,8.626,8.626,0,0,1,2.052.228,5.21,5.21,0,0,1,1.605.665,3.156,3.156,0,0,1,1.045,1.083,2.887,2.887,0,0,1,.37,1.463A2.868,2.868,0,0,1,124.26-9.367Zm4.256,9.215h-1.9V-1.957h-4.237V-3.629h4.237V-14.174h1.9ZM128.63,3H114.969v-4.75h1.9v3.04H128.63Zm-3.249-7.847h-5.168v3h-1.9v-3h-4.275v-1.71h11.343Zm-3.534-4.674a1.388,1.388,0,0,0,.893-1.33,1.371,1.371,0,0,0-.884-1.32,5.488,5.488,0,0,0-2.289-.409,5.488,5.488,0,0,0-2.289.409,1.371,1.371,0,0,0-.883,1.32,1.371,1.371,0,0,0,.883,1.321,5.488,5.488,0,0,0,2.289.408A5.535,5.535,0,0,0,121.847-9.519ZM-122.227,35h-1.9V17.826h1.9Zm-4.161-1.368h-1.995l-2.147-13.2q-.114-.684-.589-.684h-.988q-.494,0-.608.684l-2.242,13.2h-1.995l2.375-13.889h-2.166v-1.71h10.431v1.71h-2.356Zm18.05-4.845a3.985,3.985,0,0,1,2.679.817,2.891,2.891,0,0,1,.95,2.318,2.891,2.891,0,0,1-.95,2.318,3.985,3.985,0,0,1-2.679.817h-7.22a3.985,3.985,0,0,1-2.679-.817,2.891,2.891,0,0,1-.95-2.318,2.891,2.891,0,0,1,.95-2.318,3.985,3.985,0,0,1,2.679-.817Zm-.247,4.56a2.36,2.36,0,0,0,1.492-.389,1.262,1.262,0,0,0,.484-1.035,1.262,1.262,0,0,0-.484-1.035,2.36,2.36,0,0,0-1.492-.389h-6.726a2.36,2.36,0,0,0-1.492.389,1.262,1.262,0,0,0-.485,1.035,1.262,1.262,0,0,0,.485,1.035,2.36,2.36,0,0,0,1.492.389Zm3.534-9.234h-13.7V17.769h1.9V22.4h11.8Zm1.1,3.154h-16v-1.71h16Zm16.15.741h-1.9V25.445h-2.109V23.7H-89.7V21.759h-2.109V20.334h-1.786a1.693,1.693,0,0,1,.817.836,2.772,2.772,0,0,1,.3,1.254v1.254q0,3.7-4.56,3.7a5.382,5.382,0,0,1-3.391-.921,3.328,3.328,0,0,1-1.169-2.784V22.424a2.753,2.753,0,0,1,.3-1.264,1.7,1.7,0,0,1,.817-.826h-2.033v-1.71h4.522V16.857h1.9v1.767h4.522v1.387H-89.7V17.826h1.9Zm-3.287.608a3.954,3.954,0,0,1,2.679.826,2.966,2.966,0,0,1,.95,2.365,2.966,2.966,0,0,1-.95,2.365A3.954,3.954,0,0,1-91.086,35h-6.631a3.954,3.954,0,0,1-2.679-.826,2.967,2.967,0,0,1-.95-2.365,2.967,2.967,0,0,1,.95-2.365,3.954,3.954,0,0,1,2.679-.826Zm-.247,4.674a2.319,2.319,0,0,0,1.492-.4,1.329,1.329,0,0,0,.484-1.083,1.329,1.329,0,0,0-.484-1.083,2.318,2.318,0,0,0-1.492-.4H-97.47a2.318,2.318,0,0,0-1.492.4,1.329,1.329,0,0,0-.485,1.083,1.329,1.329,0,0,0,.485,1.083,2.318,2.318,0,0,0,1.492.4Zm-3.04-10.963a2.132,2.132,0,0,0-.618-1.558,2.786,2.786,0,0,0-2.043-.627,2.786,2.786,0,0,0-2.042.627,2.132,2.132,0,0,0-.618,1.558V23.64a2.1,2.1,0,0,0,.618,1.6,2.9,2.9,0,0,0,2.042.589,2.9,2.9,0,0,0,2.043-.589,2.1,2.1,0,0,0,.618-1.6ZM-65.835,35h-1.9V17.826h1.9ZM-73,33.634h-1.9l2.2-13.452a.463.463,0,0,0-.038-.351.474.474,0,0,0-.342-.086h-6.935v-1.71h8.7a.808.808,0,0,1,.665.237.82.82,0,0,1,.114.674ZM-51.756,35h-1.881V29.758h-3.7l-.646,3.876h-1.9l2.2-13.452a.463.463,0,0,0-.038-.351.474.474,0,0,0-.342-.086h-5.111v-1.71H-56.3a.808.808,0,0,1,.665.237.82.82,0,0,1,.114.674l-.494,2.869h2.375v-3.99h1.881Zm3.61,0h-1.9V17.826h1.9Zm-5.491-6.992V23.564H-56.3l-.741,4.446Zm22.287-3.173a1.481,1.481,0,0,1-.342,1.083,1.481,1.481,0,0,1-1.083.342H-44.954V17.826h1.9v2.356h9.8V17.826h1.9Zm1.2,4.655H-37.2V35h-1.9v-5.51h-7.049v-1.71h16Zm-3.1-4.94v-2.66h-9.8v2.66Zm19.209,9.082a1.481,1.481,0,0,1-.342,1.083,1.481,1.481,0,0,1-1.083.342H-27.835V30.195a1.2,1.2,0,0,1,.266-.874,1.2,1.2,0,0,1,.874-.266h4.807V27.326h-7.049v-1.71h16v1.71h-7.049v1.729h5.947Zm.38-9.139H-28.215v-1.71h2.869l-.342-3.059h-2.147v-1.71h13.794v1.71h-2.185l-.4,3.059h2.964Zm-2.28,8.854V30.765h-9.994v2.584Zm-2.584-10.564.4-3.059h-5.662l.342,3.059Zm14.269,11.1h-1.9V18.244h1.9Zm12.464,0h-6.1a4.271,4.271,0,0,1-3.116-.969,3.836,3.836,0,0,1-.969-2.831V22.044a3.836,3.836,0,0,1,.969-2.831,4.271,4.271,0,0,1,3.116-.969h6.1v1.71H2.014A2.073,2.073,0,0,0,.427,20.5a2.191,2.191,0,0,0-.5,1.549v8.037a2.191,2.191,0,0,0,.5,1.549,2.073,2.073,0,0,0,1.587.542H8.208Zm7.106,0h-1.9V19.954H9.348v-1.71H19.38v1.71H15.314Zm25.9-6.745h-3.9v1.672a3.577,3.577,0,0,1,2.309.921,2.927,2.927,0,0,1,.826,2.194,2.891,2.891,0,0,1-.95,2.318,3.985,3.985,0,0,1-2.679.817H29.6a3.985,3.985,0,0,1-2.679-.817,2.891,2.891,0,0,1-.95-2.318,2.927,2.927,0,0,1,.826-2.194,3.577,3.577,0,0,1,2.309-.921V27.136h-3.9v-1.71h16Zm-4.389-9.367a3.839,3.839,0,0,1,2.679.864,3.085,3.085,0,0,1,.95,2.4,3.085,3.085,0,0,1-.95,2.4,3.839,3.839,0,0,1-2.679.865H29.6a3.9,3.9,0,0,1-2.679-.846,3.073,3.073,0,0,1-.95-2.423,3.073,3.073,0,0,1,.95-2.422,3.9,3.9,0,0,1,2.679-.845Zm-.247,4.826a2.242,2.242,0,0,0,1.492-.418,1.583,1.583,0,0,0,0-2.28,2.242,2.242,0,0,0-1.492-.418H29.849a2.242,2.242,0,0,0-1.491.418,1.583,1.583,0,0,0,0,2.28,2.242,2.242,0,0,0,1.491.418Zm0,10.754a2.36,2.36,0,0,0,1.492-.389,1.349,1.349,0,0,0,0-2.071,2.36,2.36,0,0,0-1.492-.389H29.849a2.36,2.36,0,0,0-1.491.389,1.349,1.349,0,0,0,0,2.071,2.36,2.36,0,0,0,1.491.389Zm-1.159-4.56V27.136H31.008v1.653Zm16.986-5.3q0,3.705-4.56,3.705a5.382,5.382,0,0,1-3.391-.922,3.328,3.328,0,0,1-1.168-2.784V22.424a2.753,2.753,0,0,1,.3-1.264,1.7,1.7,0,0,1,.817-.826H42.275v-1.71h4.617V16.857h1.9v1.767h4.617v1.71H51.281a1.693,1.693,0,0,1,.817.836,2.772,2.772,0,0,1,.3,1.254Zm4.2,10.089A1.231,1.231,0,0,1,55.176,35H43.624V28.086h1.9V29.72H54.7V28.086h1.9ZM50.5,22.329a2.132,2.132,0,0,0-.618-1.558,2.786,2.786,0,0,0-2.042-.627,2.786,2.786,0,0,0-2.042.627,2.132,2.132,0,0,0-.618,1.558V23.45a2.1,2.1,0,0,0,.618,1.6,2.9,2.9,0,0,0,2.042.589,2.9,2.9,0,0,0,2.042-.589,2.1,2.1,0,0,0,.618-1.6Zm6.1,4.883H54.7V17.826h1.9v3.667h2.242v1.748H56.6Zm-1.9,6.08v-1.9H45.524v1.9ZM79.8,35H77.9V25.958H75.772V35H73.891V17.826h1.881V24.21H77.9V17.826h1.9Zm-9.842-1.368h-1.9l2.2-13.452a.463.463,0,0,0-.038-.351.474.474,0,0,0-.342-.086H64.771v-1.71h6.878a.808.808,0,0,1,.665.237.82.82,0,0,1,.114.674ZM96.159,35H82.992V30H94.069V28.637H82.954v-1.71H95.969v3.61a.971.971,0,0,1-1.14,1.14H84.892v1.615H96.159ZM91.618,24.134a1.231,1.231,0,0,1-1.425,1.425H82.175V17.94h1.9v2.128h5.643V17.94h1.9Zm4.351,1.976h-1.9V17.826h1.9v2.85h2.242v1.748H95.969Zm-6.251-2.261V21.778H84.075v2.071ZM118.883,35h-1.9V17.826h1.9Zm-4.161-1.368h-1.995l-2.147-13.2q-.114-.684-.589-.684H109q-.494,0-.608.684l-2.242,13.2h-1.995l2.375-13.889h-2.166v-1.71H114.8v1.71h-2.356Zm16.929-11a3.128,3.128,0,0,1-1.035,1.064,5.21,5.21,0,0,1-1.605.665,8.626,8.626,0,0,1-2.052.228,8.746,8.746,0,0,1-2.062-.228,5.083,5.083,0,0,1-1.605-.665,3.216,3.216,0,0,1-1.035-1.073,3.093,3.093,0,0,1,0-2.936,3.186,3.186,0,0,1,1.035-1.083,5.083,5.083,0,0,1,1.605-.665,8.746,8.746,0,0,1,2.062-.228,8.626,8.626,0,0,1,2.052.228,5.21,5.21,0,0,1,1.605.665,3.156,3.156,0,0,1,1.045,1.083,3.077,3.077,0,0,1-.01,2.945Zm4.256,9.215h-1.9V30.043H129.77V28.371h4.237V17.826h1.9ZM136.021,35H122.36v-4.75h1.9v3.04h11.761Zm-3.249-7.847H127.6v3h-1.9v-3h-4.275v-1.71h11.343Zm-3.534-4.674a1.388,1.388,0,0,0,.893-1.33,1.371,1.371,0,0,0-.883-1.32,6.62,6.62,0,0,0-4.579,0,1.429,1.429,0,0,0,0,2.641,6.667,6.667,0,0,0,4.569.009ZM-182.495,67h-1.9V49.826h1.9Zm-4.161-1.368h-1.995L-190.8,52.429q-.114-.684-.589-.684h-.988q-.494,0-.608.684l-2.242,13.205h-1.995l2.375-13.889h-2.166v-1.71h10.431v1.71h-2.356Zm21.375-6.194h-1.9V57.065h-3.382a3.847,3.847,0,0,1-1.643,1.406,5.793,5.793,0,0,1-2.48.494,6.106,6.106,0,0,1-1.957-.295,4.432,4.432,0,0,1-1.5-.836,3.689,3.689,0,0,1-.969-1.311,4.237,4.237,0,0,1-.342-1.738v-.893a4.237,4.237,0,0,1,.342-1.738,3.689,3.689,0,0,1,.969-1.311,4.432,4.432,0,0,1,1.5-.836,6.106,6.106,0,0,1,1.957-.295,5.842,5.842,0,0,1,2.461.485,3.831,3.831,0,0,1,1.643,1.377h3.4V49.826h1.9Zm0,7.562h-1.9V62.024h-11.362v-1.71h13.262Zm-6.536-13.015a2.367,2.367,0,0,0-.779-1.89,3.082,3.082,0,0,0-2.09-.675,3.082,3.082,0,0,0-2.09.675,2.367,2.367,0,0,0-.779,1.89v.7a2.367,2.367,0,0,0,.779,1.89,3.082,3.082,0,0,0,2.09.675,3.082,3.082,0,0,0,2.09-.675,2.367,2.367,0,0,0,.779-1.89Zm4.636,1.33v-2h-2.774q.019.152.029.285t.01.285v.893q0,.152-.01.276t-.029.257ZM-147.592,67h-1.9V57.768h-2.318V67h-1.881V49.826h1.881V56.02h2.318V49.826h1.9Zm-7.239-1.672h-7.562V49.94h1.881V63.62h5.681Zm25.593-4.883a3.812,3.812,0,0,1,2.679.874,3.14,3.14,0,0,1,.95,2.432,3.14,3.14,0,0,1-.95,2.432,3.812,3.812,0,0,1-2.679.874h-7.22a3.812,3.812,0,0,1-2.679-.874,3.14,3.14,0,0,1-.95-2.432,3.14,3.14,0,0,1,.95-2.432,3.812,3.812,0,0,1,2.679-.874Zm4.389-1.425h-16v-1.71h6.042v-3.23h1.9v3.23h8.056Zm-1.539-2.812h-1.9l.361-4.1q.057-.532-.532-.532H-139.65v-1.71h12.825a.958.958,0,0,1,.75.285.97.97,0,0,1,.218.76Zm-3.1,9.139a2.142,2.142,0,0,0,1.492-.447,1.493,1.493,0,0,0,.484-1.149,1.493,1.493,0,0,0-.484-1.149,2.143,2.143,0,0,0-1.492-.446h-6.726a2.143,2.143,0,0,0-1.492.446,1.493,1.493,0,0,0-.484,1.149A1.493,1.493,0,0,0-137.7,64.9a2.142,2.142,0,0,0,1.492.447Zm20.748.285a1.481,1.481,0,0,1-.342,1.083,1.481,1.481,0,0,1-1.083.342h-12.369V59.953h1.9v1.691h9.994V59.953h1.9Zm-.437-9.69h-1.9l.361-3.838q.057-.532-.532-.532h-11.191v-1.71h12.825a.958.958,0,0,1,.751.285.97.97,0,0,1,.218.76Zm1.539,2.622h-16v-1.71h16Zm-3,6.783V63.316h-9.994v2.033ZM-91.675,67h-1.9V49.826h1.9Zm-7.163-1.368h-1.9l2.2-13.452a.463.463,0,0,0-.038-.352.474.474,0,0,0-.342-.085h-6.935v-1.71h8.7a.808.808,0,0,1,.665.237.82.82,0,0,1,.114.674Zm24.719,1.425H-88.1V62.518h11.894v-1.14H-88.141v-1.71h5.985v-1.52H-89.2v-1.71h16v1.71h-7.049v1.52h5.947V63.05a1.2,1.2,0,0,1-.266.874,1.2,1.2,0,0,1-.874.266H-86.2v1.159h12.084Zm.19-11.438h-2.033l-1.995-3.439a1.262,1.262,0,0,0-.38-.446A1.145,1.145,0,0,0-79,51.574H-83.41a1.145,1.145,0,0,0-.665.162,1.262,1.262,0,0,0-.38.446l-2,3.439h-2.033l2.318-4.047q.228-.4.456-.722a2.469,2.469,0,0,1,.513-.541,2.049,2.049,0,0,1,.665-.333,3.278,3.278,0,0,1,.931-.114h4.788a3.3,3.3,0,0,1,.922.114,2.036,2.036,0,0,1,.674.333,2.565,2.565,0,0,1,.513.532,6.709,6.709,0,0,1,.456.731Zm22.876,10.241h-16v-1.71H-61.1V57.008h1.9v7.144h8.151Zm-1.691-5.282h-1.9l.57-8.322q.057-.532-.532-.532H-65.854v-1.71h12.825a.958.958,0,0,1,.75.285.97.97,0,0,1,.218.76Zm17.8-.76h-13.7V51.156a1.2,1.2,0,0,1,.266-.874,1.2,1.2,0,0,1,.874-.266h12.464v1.71h-11.7V58.11h11.8Zm1.1,6.042h-16v-1.71h7.049V60.96h1.9v3.192h7.049Zm12.73-.342H-32.357V63.81h4.636V61.72a3.982,3.982,0,0,1-2.622-1.273,4.124,4.124,0,0,1-.893-2.774V55.7a4.288,4.288,0,0,1,.313-1.7,2.787,2.787,0,0,1,.9-1.168H-32.2v-1.71h4.484V49.047h1.9v2.071h4.541v1.71h-2.185a2.364,2.364,0,0,1,.884,1.159,4.891,4.891,0,0,1,.275,1.71v1.976a4.124,4.124,0,0,1-.893,2.774,3.982,3.982,0,0,1-2.622,1.273v2.09h4.712ZM-18.259,67h-1.9V49.826h1.9v6.1h2.242v1.748h-2.242Zm-5.947-11.628a2.968,2.968,0,0,0-.58-1.929,2.427,2.427,0,0,0-1.986-.713,2.427,2.427,0,0,0-1.985.713,2.968,2.968,0,0,0-.58,1.929v2.2a2.968,2.968,0,0,0,.58,1.929,2.427,2.427,0,0,0,1.985.712,2.427,2.427,0,0,0,1.986-.712,2.968,2.968,0,0,0,.58-1.929ZM4.465,67h-1.9V49.826h1.9ZM.3,65.634H-1.691L-3.838,52.429q-.114-.684-.589-.684h-.988q-.494,0-.608.684L-8.265,65.634H-10.26l2.375-13.889h-2.166v-1.71H.38v1.71H-1.976Zm16.929-11A3.128,3.128,0,0,1,16.2,55.7a5.21,5.21,0,0,1-1.606.665,8.626,8.626,0,0,1-2.052.228,8.746,8.746,0,0,1-2.061-.228A5.083,5.083,0,0,1,8.873,55.7a3.216,3.216,0,0,1-1.036-1.073,3.092,3.092,0,0,1,0-2.936A3.186,3.186,0,0,1,8.873,50.6a5.083,5.083,0,0,1,1.606-.665,8.746,8.746,0,0,1,2.061-.228,8.626,8.626,0,0,1,2.052.228A5.21,5.21,0,0,1,16.2,50.6a3.156,3.156,0,0,1,1.045,1.083,3.077,3.077,0,0,1-.009,2.945Zm4.256,9.215h-1.9V62.043H15.352V60.371h4.237V49.826h1.9ZM21.6,67H7.942v-4.75h1.9v3.04H21.6Zm-3.249-7.847H13.186v3h-1.9v-3H7.011v-1.71H18.354ZM14.82,54.481a1.388,1.388,0,0,0,.893-1.33,1.371,1.371,0,0,0-.884-1.321,5.488,5.488,0,0,0-2.29-.409,5.488,5.488,0,0,0-2.289.409,1.429,1.429,0,0,0,0,2.641,5.489,5.489,0,0,0,2.289.408A5.535,5.535,0,0,0,14.82,54.481ZM39.045,67.059H25.061V62.518H36.955v-1.14H25.023v-1.71H38.855V63.05a.971.971,0,0,1-1.14,1.14H26.961v1.159H39.045Zm.912-8.816h-16v-1.71h16Zm-4.389-8.474a4.307,4.307,0,0,1,2.679.731,2.837,2.837,0,0,1,0,4.237,4.307,4.307,0,0,1-2.679.732h-7.22a4.391,4.391,0,0,1-2.679-.713,2.88,2.88,0,0,1,0-4.275,4.391,4.391,0,0,1,2.679-.712Zm-.247,3.99q1.976,0,1.976-1.14t-1.976-1.14H28.6q-1.976,0-1.976,1.14t1.976,1.14Zm21.66.931a3.957,3.957,0,0,1-.371,1.739,3.747,3.747,0,0,1-1.045,1.311,4.891,4.891,0,0,1-1.605.836,6.778,6.778,0,0,1-2.052.294,6.871,6.871,0,0,1-2.062-.294,4.768,4.768,0,0,1-1.605-.836,3.794,3.794,0,0,1-1.035-1.311,3.957,3.957,0,0,1-.37-1.739v-.7a3.957,3.957,0,0,1,.37-1.739,3.794,3.794,0,0,1,1.035-1.311,4.768,4.768,0,0,1,1.605-.836,6.871,6.871,0,0,1,2.062-.295,6.778,6.778,0,0,1,2.052.295,4.891,4.891,0,0,1,1.605.836,3.747,3.747,0,0,1,1.045,1.311,3.957,3.957,0,0,1,.371,1.739ZM60.857,67h-1.9V49.826h1.9Zm-5.776-12.92a2.242,2.242,0,0,0-.883-1.891,4.223,4.223,0,0,0-4.579,0,2.242,2.242,0,0,0-.883,1.891V54.6a2.242,2.242,0,0,0,.883,1.89,4.223,4.223,0,0,0,4.579,0,2.242,2.242,0,0,0,.883-1.89ZM52.649,67h-1.9V61.758h-4.37v-1.71H57.817v1.71H52.649ZM73.3,56.476q0,3.705-4.56,3.705a5.382,5.382,0,0,1-3.392-.922,3.328,3.328,0,0,1-1.169-2.784V54.424a2.753,2.753,0,0,1,.3-1.264,1.7,1.7,0,0,1,.817-.826H63.175v-1.71h4.617V48.857h1.9v1.767h4.617v1.71H72.181A1.693,1.693,0,0,1,73,53.17a2.772,2.772,0,0,1,.3,1.254Zm-1.9-2.147a2.132,2.132,0,0,0-.618-1.558,3.64,3.64,0,0,0-4.085,0,2.132,2.132,0,0,0-.618,1.558v2.109a2.1,2.1,0,0,0,.618,1.6,3.836,3.836,0,0,0,4.085,0,2.1,2.1,0,0,0,.618-1.6ZM77.615,67H64.524V61.34h1.9v3.952H77.615ZM77.5,62.8H75.6V49.826h1.9v4.712h2.242v1.748H77.5Zm22.914-.19h-1.9V49.826h1.9ZM100.529,67H87.248V60.96h1.9v4.332h11.381Zm-4.655-7.068h-1.9V51.745H91.922a1.339,1.339,0,0,0-.874.228,1.779,1.779,0,0,0-.456.7l-2.831,7.258H85.652l3-7.695a10.542,10.542,0,0,1,.418-.969,2.327,2.327,0,0,1,.513-.694,1.923,1.923,0,0,1,.731-.409,3.672,3.672,0,0,1,1.074-.133h4.484ZM115.026,67h-1.9v-6.27h-4.674V67h-1.9v-6.27H102.7v-1.71h16v1.71h-3.667ZM117,57.882h-1.9l.57-5.624q.057-.532-.532-.532H103.892v-1.71h12.825a.958.958,0,0,1,.75.285.97.97,0,0,1,.218.76ZM139.023,67h-1.9V49.826h1.9v6.1h2.242v1.748h-2.242Zm-4.066-6.8h-1.9l.437-8.018a.561.561,0,0,0-.048-.352q-.067-.085-.333-.085h-7.543v-1.71h9.12a.749.749,0,0,1,.646.237.989.989,0,0,1,.133.674Zm1.216,5.32H124.925V63.81h3.439v-6.8h1.9v6.8h5.909Zm14.022.114h-1.976L146.946,52.41a1.131,1.131,0,0,0-.143-.523.407.407,0,0,0-.352-.142h-.513a.431.431,0,0,0-.37.142,1.131,1.131,0,0,0-.143.523l-1.539,13.224h-1.976L143.6,51.745h-1.5v-1.71h8.36v1.71H148.77ZM153.862,67h-1.881V57.6h-1.995V55.849h1.995V49.826h1.881Zm3.61,0h-1.9V49.826h1.9Zm21.489,0h-1.9V49.826h1.9ZM171.8,65.634h-1.9l2.2-13.452a.463.463,0,0,0-.038-.352.474.474,0,0,0-.342-.085h-6.935v-1.71h8.7a.808.808,0,0,1,.665.237.82.82,0,0,1,.114.674Zm21.527-5.168H181.7v-1.71h4.826V57.73a4.552,4.552,0,0,1-2.622-.922,2.627,2.627,0,0,1-.893-2.1v-.456a2.369,2.369,0,0,1,.3-1.2,2.075,2.075,0,0,1,.836-.817h-2.109v-1.71h4.484V48.857h1.9v1.672h4.541v1.71h-2.109a1.714,1.714,0,0,1,.817.808,2.7,2.7,0,0,1,.266,1.206v.456a2.627,2.627,0,0,1-.893,2.1,4.552,4.552,0,0,1-2.622.922v1.026h4.9ZM196.175,67h-1.9V63.411H182.533V61.7h13.642Zm0-6.213h-1.9V49.826h1.9Zm-6.137-6.764a1.907,1.907,0,0,0-.143-.741,1.566,1.566,0,0,0-.446-.6,2.146,2.146,0,0,0-.789-.4,5.019,5.019,0,0,0-2.375,0,2.146,2.146,0,0,0-.788.4,1.566,1.566,0,0,0-.447.6,1.908,1.908,0,0,0-.142.741v.3a1.712,1.712,0,0,0,.579,1.406,4.387,4.387,0,0,0,3.971,0,1.712,1.712,0,0,0,.579-1.406Z" transform="translate(1077 777)"/>
    <g class="cls-7" transform="matrix(1, 0, 0, 1, 198, 476)">
      <path id="패스_1546-2" data-name="패스 1546" class="cls-4" d="M-63.792-4.488a4.815,4.815,0,0,1,3.384,1.1,3.966,3.966,0,0,1,1.2,3.072,3.966,3.966,0,0,1-1.2,3.072,4.815,4.815,0,0,1-3.384,1.1h-9.12A4.815,4.815,0,0,1-76.3,2.76,3.966,3.966,0,0,1-77.5-.312a3.966,3.966,0,0,1,1.2-3.072,4.815,4.815,0,0,1,3.384-1.1Zm5.544-1.8H-78.456v-2.16h7.632v-4.08h2.4v4.08h10.176ZM-60.192-9.84h-2.4l.456-5.184q.072-.672-.672-.672H-76.944v-2.16h16.2a1.21,1.21,0,0,1,.948.36,1.226,1.226,0,0,1,.276.96ZM-64.1,1.7A2.706,2.706,0,0,0-62.22,1.14a1.885,1.885,0,0,0,.612-1.452,1.885,1.885,0,0,0-.612-1.452A2.706,2.706,0,0,0-64.1-2.328h-8.5a2.706,2.706,0,0,0-1.884.564A1.885,1.885,0,0,0-75.1-.312a1.885,1.885,0,0,0,.612,1.452A2.706,2.706,0,0,0-72.6,1.7Zm26.208.36a1.871,1.871,0,0,1-.432,1.368,1.871,1.871,0,0,1-1.368.432H-55.32V-5.112h2.4v2.136H-40.3V-5.112h2.4Zm-.552-12.24h-2.4l.456-4.848q.072-.672-.672-.672H-55.2v-2.16H-39a1.21,1.21,0,0,1,.948.36,1.226,1.226,0,0,1,.276.96ZM-36.5-6.864H-56.712v-2.16H-36.5ZM-40.3,1.7V-.864H-52.92V1.7Zm23.952,2.088h-2.4V-17.9h2.4Zm-9.048-1.728h-2.4l2.784-16.992a.585.585,0,0,0-.048-.444.6.6,0,0,0-.432-.108h-8.76v-2.16h10.992a1.02,1.02,0,0,1,.84.3,1.035,1.035,0,0,1,.144.852Zm31.224,1.8H-11.832V-1.872H3.192v-1.44H-11.88v-2.16h7.56v-1.92h-8.9v-2.16H6.984v2.16h-8.9v1.92H5.592V-1.2A1.519,1.519,0,0,1,5.256-.1a1.519,1.519,0,0,1-1.1.336H-9.432V1.7H5.832Zm.24-14.448H3.5L.984-14.928a1.594,1.594,0,0,0-.48-.564,1.447,1.447,0,0,0-.84-.2H-5.9a1.447,1.447,0,0,0-.84.2,1.594,1.594,0,0,0-.48.564l-2.52,4.344h-2.568L-9.384-15.7q.288-.5.576-.912a3.119,3.119,0,0,1,.648-.684,2.588,2.588,0,0,1,.84-.42,4.141,4.141,0,0,1,1.176-.144H-.1a4.17,4.17,0,0,1,1.164.144,2.572,2.572,0,0,1,.852.42,3.24,3.24,0,0,1,.648.672,8.476,8.476,0,0,1,.576.924Zm28.9,12.936H14.76V.192h7.512V-8.832h2.4V.192h10.3ZM32.832-4.32h-2.4l.72-10.512q.072-.672-.672-.672H16.272v-2.16h16.2a1.21,1.21,0,0,1,.948.36,1.226,1.226,0,0,1,.276.96ZM55.32-5.28h-17.3V-16.224a1.519,1.519,0,0,1,.336-1.1,1.519,1.519,0,0,1,1.1-.336H55.2v2.16H40.416V-7.44h14.9Zm1.392,7.632H36.5V.192h8.9V-3.84h2.4V.192h8.9Zm16.08-.432H58.584V-.24H64.44V-2.88a5.03,5.03,0,0,1-3.312-1.608A5.209,5.209,0,0,1,60-7.992v-2.5a5.416,5.416,0,0,1,.4-2.148,3.52,3.52,0,0,1,1.14-1.476h-2.76v-2.16H64.44v-2.616h2.4v2.616h5.736v2.16h-2.76a2.986,2.986,0,0,1,1.116,1.464,6.179,6.179,0,0,1,.348,2.16v2.5a5.209,5.209,0,0,1-1.128,3.5A5.03,5.03,0,0,1,66.84-2.88V-.24h5.952Zm3.6,1.872h-2.4V-17.9h2.4v7.7h2.832v2.208H76.392ZM68.88-10.9a3.749,3.749,0,0,0-.732-2.436,3.066,3.066,0,0,0-2.508-.9,3.066,3.066,0,0,0-2.508.9A3.749,3.749,0,0,0,62.4-10.9v2.784a3.749,3.749,0,0,0,.732,2.436,3.066,3.066,0,0,0,2.508.9,3.066,3.066,0,0,0,2.508-.9,3.749,3.749,0,0,0,.732-2.436Z" transform="translate(879 226)"/>
    </g>
    <path id="선_127" data-name="선 127" class="cls-2" d="M595,1.5h-5v-3h5Zm-10,0h-5v-3h5Zm-10,0h-5v-3h5Zm-10,0h-5v-3h5Zm-10,0h-5v-3h5Zm-10,0h-5v-3h5Zm-10,0h-5v-3h5Zm-10,0h-5v-3h5Zm-10,0h-5v-3h5Zm-10,0h-5v-3h5Zm-10,0h-5v-3h5Zm-10,0h-5v-3h5Zm-10,0h-5v-3h5Zm-10,0h-5v-3h5Zm-10,0h-5v-3h5Zm-10,0h-5v-3h5Zm-10,0h-5v-3h5Zm-10,0h-5v-3h5Zm-10,0h-5v-3h5Zm-10,0h-5v-3h5Zm-10,0h-5v-3h5Zm-10,0h-5v-3h5Zm-10,0h-5v-3h5Zm-10,0h-5v-3h5Zm-10,0h-5v-3h5Zm-10,0h-5v-3h5Zm-10,0h-5v-3h5Zm-10,0h-5v-3h5Zm-10,0h-5v-3h5Zm-10,0h-5v-3h5Zm-10,0h-5v-3h5Zm-10,0h-5v-3h5Zm-10,0h-5v-3h5Zm-10,0h-5v-3h5Zm-10,0h-5v-3h5Zm-10,0h-5v-3h5Zm-10,0h-5v-3h5Zm-10,0h-5v-3h5Zm-10,0h-5v-3h5Zm-10,0h-5v-3h5Zm-10,0h-5v-3h5Zm-10,0h-5v-3h5Zm-10,0h-5v-3h5Zm-10,0h-5v-3h5Zm-10,0h-5v-3h5Zm-10,0h-5v-3h5Zm-10,0h-5v-3h5Zm-10,0h-5v-3h5Zm-10,0h-5v-3h5Zm-10,0h-5v-3h5Zm-10,0H90v-3h5Zm-10,0H80v-3h5Zm-10,0H70v-3h5Zm-10,0H60v-3h5Zm-10,0H50v-3h5Zm-10,0H40v-3h5Zm-10,0H30v-3h5Zm-10,0H20v-3h5Zm-10,0H10v-3h5ZM5,1.5H0v-3H5Z" transform="translate(483.5 629)"/>
  </g>
</svg>
