<svg xmlns="http://www.w3.org/2000/svg" xmlns:xlink="http://www.w3.org/1999/xlink" width="66" height="34.01" viewBox="0 0 66 34.01">
  <defs>
    <linearGradient id="linear-gradient" x1="0.5" y1="0.087" x2="0.5" y2="0.99" gradientUnits="objectBoundingBox">
      <stop offset="0" stop-color="#00a1ed"/>
      <stop offset="1" stop-color="#002581"/>
    </linearGradient>
    <linearGradient id="linear-gradient-2" x1="0.5" y1="-0.005" x2="0.5" y2="0.995" xlink:href="#linear-gradient"/>
  </defs>
  <g id="그룹_328" data-name="그룹 328" transform="translate(-339.969 -322.613)">
    <g id="그룹_71" data-name="그룹 71" transform="translate(339.969 322.613)">
      <g id="그룹_70" data-name="그룹 70">
        <path id="패스_185" data-name="패스 185" d="M371.884,323.631h-1.966v1.909h1.966Zm1.034-1.018v1.909h1.963v-1.909Zm-4.086,1.98h-1.966V326.5h1.966Zm-2.463.482H364.4v1.908h1.966Zm-2.377,4.306h1.961v-1.906H364.1v-1.909h-1.961v1.909h1.853Zm4.227,1.683h1.964v-1.908h-1.964Zm2.832-.492h1.966v-1.91h-1.966Zm-3.1,2.816h1.968V331.48H367.95Zm2.269-.189h1.964v-1.908H370.22Zm1.286-6.824h-1.964v1.908h1.964ZM366.368,329h1.963V327.1h-1.963Zm-.533,2.441H367.8v-1.911h-1.963Zm6.512-3.586h1.964v-1.909h-1.964Zm-6.623,1.863H363.76v-1.906h-1.97v-1.908h-9.818v7.633h5.919v23.085h7.833V333.538h1.966v-1.909h-1.966Z" transform="translate(-331.398 -322.613)" fill="url(#linear-gradient)"/>
        <path id="패스_186" data-name="패스 186" d="M339.969,347.461h5.053c3.236,0,4.117-.785,4.117-3.423V324.561h8.051v18.181c0,11.846-4.487,12.49-17.221,12.49Z" transform="translate(-339.969 -321.222)" fill="#8abb2a"/>
        <path id="패스_187" data-name="패스 187" d="M376.87,324.544h-11.5v30.7h8.049v-8.4h3.356c6.942,0,11.056-4.626,11.056-11.38A10.688,10.688,0,0,0,376.87,324.544Zm-3.45,14.792v-7.3H376.4a3.293,3.293,0,0,1,3.38,3.423C379.784,338.757,377.95,339.3,373.419,339.336Z" transform="translate(-321.831 -321.234)" fill="url(#linear-gradient-2)"/>
      </g>
    </g>
  </g>
</svg>
