<?xml version="1.0" encoding="utf-8"?>
<!-- Generator: Adobe Illustrator 26.0.1, SVG Export Plug-In . SVG Version: 6.00 Build 0)  -->
<svg version="1.1" id="레이어_1" xmlns="http://www.w3.org/2000/svg" xmlns:xlink="http://www.w3.org/1999/xlink" x="0px"
	 y="0px" viewBox="0 0 66 34" style="enable-background:new 0 0 66 34;" xml:space="preserve">
<style type="text/css">
	.st0{fill:#FFFFFF;}
</style>
<g id="그룹_328" transform="translate(-339.969 -322.613)">
	<g id="그룹_71" transform="translate(339.969 322.613)">
		<g id="그룹_70">
			<path id="패스_185" class="st0" d="M40.5,1h-2v1.9h2V1z M41.5,0v1.9h2V0H41.5z M37.4,2h-2v1.9h2V2z M35,2.5h-2v1.9h2L35,2.5z
				 M32.6,6.8h2V4.9h-1.9V3h-2v1.9h1.9L32.6,6.8z M36.8,8.5h2V6.5h-2V8.5z M39.7,8h2V6h-2V8z M36.6,10.8h2V8.9h-2L36.6,10.8z
				 M38.8,10.6h2V8.7h-2L38.8,10.6z M40.1,3.8h-2v1.9h2V3.8z M35,6.4h2V4.5h-2V6.4z M34.4,8.8h2V6.9h-2L34.4,8.8z M40.9,5.2h2V3.3
				h-2V5.2z M34.3,7.1h-2V5.2h-2V3.3h-9.8v7.6h5.9V34h7.8V10.9h2V9h-2V7.1z"/>
			<path id="패스_186" class="st0" d="M0,26.2h5.1c3.2,0,4.1-0.8,4.1-3.4V3.3h8.1v18.2C17.2,33.4,12.7,34,0,34V26.2z"/>
			<path id="패스_187" class="st0" d="M55,3.3H43.5V34h8v-8.4h3.4C61.9,25.6,66,21,66,14.2c0.1-5.9-4.5-10.8-10.4-10.9
				C55.4,3.3,55.2,3.3,55,3.3z M51.6,18.1v-7.3h3c1.8,0,3.3,1.4,3.4,3.2c0,0.1,0,0.1,0,0.2C58,17.5,56.1,18.1,51.6,18.1L51.6,18.1z"
				/>
		</g>
	</g>
</g>
</svg>
